ISO-10303-21;
HEADER;
FILE_DESCRIPTION(('FreeCAD Model'),'2;1');
FILE_NAME('Open CASCADE Shape Model','2026-07-27T14:36:44',(''),(''),
  'Open CASCADE STEP processor 7.8','FreeCAD','Unknown');
FILE_SCHEMA(('AUTOMOTIVE_DESIGN { 1 0 10303 214 1 1 1 1 }'));
ENDSEC;
DATA;
#1 = APPLICATION_PROTOCOL_DEFINITION('international standard',
  'automotive_design',2000,#2);
#2 = APPLICATION_CONTEXT(
  'core data for automotive mechanical design processes');
#3 = SHAPE_DEFINITION_REPRESENTATION(#4,#10);
#4 = PRODUCT_DEFINITION_SHAPE('','',#5);
#5 = PRODUCT_DEFINITION('design','',#6,#9);
#6 = PRODUCT_DEFINITION_FORMATION('','',#7);
#7 = PRODUCT('Body','Body','',(#8));
#8 = PRODUCT_CONTEXT('',#2,'mechanical');
#9 = PRODUCT_DEFINITION_CONTEXT('part definition',#2,'design');
#10 = ADVANCED_BREP_SHAPE_REPRESENTATION('',(#11,#15),#1953);
#11 = AXIS2_PLACEMENT_3D('',#12,#13,#14);
#12 = CARTESIAN_POINT('',(0.,0.,0.));
#13 = DIRECTION('',(0.,0.,1.));
#14 = DIRECTION('',(1.,0.,-0.));
#15 = MANIFOLD_SOLID_BREP('',#16);
#16 = CLOSED_SHELL('',(#17,#57,#113,#138,#162,#203,#220,#503,#520,#532,
    #563,#587,#611,#635,#675,#699,#723,#747,#771,#795,#835,#859,#883,
    #907,#931,#955,#979,#1003,#1027,#1052,#1076,#1116,#1148,#1172,#1197,
    #1222,#1247,#1272,#1297,#1322,#1445,#1476,#1507,#1525,#1552,#1584,
    #1608,#1633,#1665,#1689,#1713,#1737,#1761,#1785,#1810,#1838,#1855,
    #1882,#1894,#1910,#1935,#1944));
#17 = ADVANCED_FACE('',(#18),#52,.T.);
#18 = FACE_BOUND('',#19,.T.);
#19 = EDGE_LOOP('',(#20,#30,#38,#46));
#20 = ORIENTED_EDGE('',*,*,#21,.F.);
#21 = EDGE_CURVE('',#22,#24,#26,.T.);
#22 = VERTEX_POINT('',#23);
#23 = CARTESIAN_POINT('',(-13.55,-32.4,-4.));
#24 = VERTEX_POINT('',#25);
#25 = CARTESIAN_POINT('',(-13.55,-29.02549141002,-5.824058697285));
#26 = LINE('',#27,#28);
#27 = CARTESIAN_POINT('',(-13.55,-32.4,-4.));
#28 = VECTOR('',#29,1.);
#29 = DIRECTION('',(-0.,0.879706513576,-0.475517034365));
#30 = ORIENTED_EDGE('',*,*,#31,.T.);
#31 = EDGE_CURVE('',#22,#32,#34,.T.);
#32 = VERTEX_POINT('',#33);
#33 = CARTESIAN_POINT('',(-3.95,-32.4,-4.));
#34 = LINE('',#35,#36);
#35 = CARTESIAN_POINT('',(-13.55,-32.4,-4.));
#36 = VECTOR('',#37,1.);
#37 = DIRECTION('',(1.,0.,0.));
#38 = ORIENTED_EDGE('',*,*,#39,.F.);
#39 = EDGE_CURVE('',#40,#32,#42,.T.);
#40 = VERTEX_POINT('',#41);
#41 = CARTESIAN_POINT('',(-3.95,-29.02549141002,-5.824058697285));
#42 = LINE('',#43,#44);
#43 = CARTESIAN_POINT('',(-3.95,-33.23663086489,-3.547767100057));
#44 = VECTOR('',#45,1.);
#45 = DIRECTION('',(0.,-0.879706513576,0.475517034365));
#46 = ORIENTED_EDGE('',*,*,#47,.F.);
#47 = EDGE_CURVE('',#24,#40,#48,.T.);
#48 = LINE('',#49,#50);
#49 = CARTESIAN_POINT('',(-13.55,-29.02549141002,-5.824058697285));
#50 = VECTOR('',#51,1.);
#51 = DIRECTION('',(1.,0.,0.));
#52 = PLANE('',#53);
#53 = AXIS2_PLACEMENT_3D('',#54,#55,#56);
#54 = CARTESIAN_POINT('',(-13.55,-32.4,-4.));
#55 = DIRECTION('',(0.,0.475517034365,0.879706513576));
#56 = DIRECTION('',(0.,0.879706513576,-0.475517034365));
#57 = ADVANCED_FACE('',(#58),#108,.T.);
#58 = FACE_BOUND('',#59,.T.);
#59 = EDGE_LOOP('',(#60,#61,#70,#78,#86,#94,#102));
#60 = ORIENTED_EDGE('',*,*,#21,.T.);
#61 = ORIENTED_EDGE('',*,*,#62,.T.);
#62 = EDGE_CURVE('',#24,#63,#65,.T.);
#63 = VERTEX_POINT('',#64);
#64 = CARTESIAN_POINT('',(-13.55,-29.02549141002,-6.175941302715));
#65 = CIRCLE('',#66,0.2);
#66 = AXIS2_PLACEMENT_3D('',#67,#68,#69);
#67 = CARTESIAN_POINT('',(-13.55,-29.12059481689,-6.));
#68 = DIRECTION('',(-1.,0.,0.));
#69 = DIRECTION('',(0.,0.,1.));
#70 = ORIENTED_EDGE('',*,*,#71,.T.);
#71 = EDGE_CURVE('',#63,#72,#74,.T.);
#72 = VERTEX_POINT('',#73);
#73 = CARTESIAN_POINT('',(-13.55,-32.4,-8.));
#74 = LINE('',#75,#76);
#75 = CARTESIAN_POINT('',(-13.55,-28.7,-6.));
#76 = VECTOR('',#77,1.);
#77 = DIRECTION('',(0.,-0.879706513576,-0.475517034365));
#78 = ORIENTED_EDGE('',*,*,#79,.F.);
#79 = EDGE_CURVE('',#80,#72,#82,.T.);
#80 = VERTEX_POINT('',#81);
#81 = CARTESIAN_POINT('',(-13.55,-37.4,-8.));
#82 = LINE('',#83,#84);
#83 = CARTESIAN_POINT('',(-13.55,-37.4,-8.));
#84 = VECTOR('',#85,1.);
#85 = DIRECTION('',(0.,1.,0.));
#86 = ORIENTED_EDGE('',*,*,#87,.F.);
#87 = EDGE_CURVE('',#88,#80,#90,.T.);
#88 = VERTEX_POINT('',#89);
#89 = CARTESIAN_POINT('',(-13.55,-37.4,0.));
#90 = LINE('',#91,#92);
#91 = CARTESIAN_POINT('',(-13.55,-37.4,0.));
#92 = VECTOR('',#93,1.);
#93 = DIRECTION('',(0.,0.,-1.));
#94 = ORIENTED_EDGE('',*,*,#95,.T.);
#95 = EDGE_CURVE('',#88,#96,#98,.T.);
#96 = VERTEX_POINT('',#97);
#97 = CARTESIAN_POINT('',(-13.55,-32.4,0.));
#98 = LINE('',#99,#100);
#99 = CARTESIAN_POINT('',(-13.55,-37.4,0.));
#100 = VECTOR('',#101,1.);
#101 = DIRECTION('',(0.,1.,0.));
#102 = ORIENTED_EDGE('',*,*,#103,.T.);
#103 = EDGE_CURVE('',#96,#22,#104,.T.);
#104 = LINE('',#105,#106);
#105 = CARTESIAN_POINT('',(-13.55,-32.4,0.));
#106 = VECTOR('',#107,1.);
#107 = DIRECTION('',(0.,0.,-1.));
#108 = PLANE('',#109);
#109 = AXIS2_PLACEMENT_3D('',#110,#111,#112);
#110 = CARTESIAN_POINT('',(-13.55,-34.0256135831,-4.290142797338));
#111 = DIRECTION('',(-1.,-0.,-0.));
#112 = DIRECTION('',(0.,0.,-1.));
#113 = ADVANCED_FACE('',(#114),#133,.T.);
#114 = FACE_BOUND('',#115,.F.);
#115 = EDGE_LOOP('',(#116,#117,#125,#132));
#116 = ORIENTED_EDGE('',*,*,#62,.T.);
#117 = ORIENTED_EDGE('',*,*,#118,.T.);
#118 = EDGE_CURVE('',#63,#119,#121,.T.);
#119 = VERTEX_POINT('',#120);
#120 = CARTESIAN_POINT('',(-3.95,-29.02549141002,-6.175941302715));
#121 = LINE('',#122,#123);
#122 = CARTESIAN_POINT('',(-13.55,-29.02549141002,-6.175941302715));
#123 = VECTOR('',#124,1.);
#124 = DIRECTION('',(1.,0.,0.));
#125 = ORIENTED_EDGE('',*,*,#126,.F.);
#126 = EDGE_CURVE('',#40,#119,#127,.T.);
#127 = CIRCLE('',#128,0.2);
#128 = AXIS2_PLACEMENT_3D('',#129,#130,#131);
#129 = CARTESIAN_POINT('',(-3.95,-29.12059481689,-6.));
#130 = DIRECTION('',(-1.,0.,0.));
#131 = DIRECTION('',(0.,0.,1.));
#132 = ORIENTED_EDGE('',*,*,#47,.F.);
#133 = CYLINDRICAL_SURFACE('',#134,0.2);
#134 = AXIS2_PLACEMENT_3D('',#135,#136,#137);
#135 = CARTESIAN_POINT('',(-13.55,-29.12059481689,-6.));
#136 = DIRECTION('',(1.,0.,0.));
#137 = DIRECTION('',(0.,0.475517034365,0.879706513576));
#138 = ADVANCED_FACE('',(#139),#157,.F.);
#139 = FACE_BOUND('',#140,.F.);
#140 = EDGE_LOOP('',(#141,#149,#150,#151));
#141 = ORIENTED_EDGE('',*,*,#142,.F.);
#142 = EDGE_CURVE('',#96,#143,#145,.T.);
#143 = VERTEX_POINT('',#144);
#144 = CARTESIAN_POINT('',(-3.95,-32.4,0.));
#145 = LINE('',#146,#147);
#146 = CARTESIAN_POINT('',(-13.55,-32.4,0.));
#147 = VECTOR('',#148,1.);
#148 = DIRECTION('',(1.,0.,0.));
#149 = ORIENTED_EDGE('',*,*,#103,.T.);
#150 = ORIENTED_EDGE('',*,*,#31,.T.);
#151 = ORIENTED_EDGE('',*,*,#152,.F.);
#152 = EDGE_CURVE('',#143,#32,#153,.T.);
#153 = LINE('',#154,#155);
#154 = CARTESIAN_POINT('',(-3.95,-32.4,0.));
#155 = VECTOR('',#156,1.);
#156 = DIRECTION('',(0.,0.,-1.));
#157 = PLANE('',#158);
#158 = AXIS2_PLACEMENT_3D('',#159,#160,#161);
#159 = CARTESIAN_POINT('',(-13.55,-32.4,0.));
#160 = DIRECTION('',(0.,-1.,0.));
#161 = DIRECTION('',(1.,0.,0.));
#162 = ADVANCED_FACE('',(#163),#198,.T.);
#163 = FACE_BOUND('',#164,.T.);
#164 = EDGE_LOOP('',(#165,#173,#174,#175,#176,#184,#192));
#165 = ORIENTED_EDGE('',*,*,#166,.T.);
#166 = EDGE_CURVE('',#167,#119,#169,.T.);
#167 = VERTEX_POINT('',#168);
#168 = CARTESIAN_POINT('',(-3.95,-32.4,-8.));
#169 = LINE('',#170,#171);
#170 = CARTESIAN_POINT('',(-3.95,-28.8767382702,-6.095534200113));
#171 = VECTOR('',#172,1.);
#172 = DIRECTION('',(0.,0.879706513576,0.475517034365));
#173 = ORIENTED_EDGE('',*,*,#126,.F.);
#174 = ORIENTED_EDGE('',*,*,#39,.T.);
#175 = ORIENTED_EDGE('',*,*,#152,.F.);
#176 = ORIENTED_EDGE('',*,*,#177,.T.);
#177 = EDGE_CURVE('',#143,#178,#180,.T.);
#178 = VERTEX_POINT('',#179);
#179 = CARTESIAN_POINT('',(-3.95,-37.4,0.));
#180 = LINE('',#181,#182);
#181 = CARTESIAN_POINT('',(-3.95,-32.4,0.));
#182 = VECTOR('',#183,1.);
#183 = DIRECTION('',(0.,-1.,0.));
#184 = ORIENTED_EDGE('',*,*,#185,.T.);
#185 = EDGE_CURVE('',#178,#186,#188,.T.);
#186 = VERTEX_POINT('',#187);
#187 = CARTESIAN_POINT('',(-3.95,-37.4,-8.));
#188 = LINE('',#189,#190);
#189 = CARTESIAN_POINT('',(-3.95,-37.4,0.));
#190 = VECTOR('',#191,1.);
#191 = DIRECTION('',(0.,0.,-1.));
#192 = ORIENTED_EDGE('',*,*,#193,.F.);
#193 = EDGE_CURVE('',#167,#186,#194,.T.);
#194 = LINE('',#195,#196);
#195 = CARTESIAN_POINT('',(-3.95,-32.4,-8.));
#196 = VECTOR('',#197,1.);
#197 = DIRECTION('',(0.,-1.,0.));
#198 = PLANE('',#199);
#199 = AXIS2_PLACEMENT_3D('',#200,#201,#202);
#200 = CARTESIAN_POINT('',(-3.95,-34.0256135831,-4.290142797338));
#201 = DIRECTION('',(1.,0.,0.));
#202 = DIRECTION('',(0.,0.,1.));
#203 = ADVANCED_FACE('',(#204),#215,.T.);
#204 = FACE_BOUND('',#205,.T.);
#205 = EDGE_LOOP('',(#206,#207,#208,#209));
#206 = ORIENTED_EDGE('',*,*,#71,.F.);
#207 = ORIENTED_EDGE('',*,*,#118,.T.);
#208 = ORIENTED_EDGE('',*,*,#166,.F.);
#209 = ORIENTED_EDGE('',*,*,#210,.F.);
#210 = EDGE_CURVE('',#72,#167,#211,.T.);
#211 = LINE('',#212,#213);
#212 = CARTESIAN_POINT('',(-13.55,-32.4,-8.));
#213 = VECTOR('',#214,1.);
#214 = DIRECTION('',(1.,0.,0.));
#215 = PLANE('',#216);
#216 = AXIS2_PLACEMENT_3D('',#217,#218,#219);
#217 = CARTESIAN_POINT('',(-13.55,-28.7,-6.));
#218 = DIRECTION('',(0.,0.475517034365,-0.879706513576));
#219 = DIRECTION('',(0.,-0.879706513576,-0.475517034365));
#220 = ADVANCED_FACE('',(#221,#432,#443,#454,#465,#476,#487),#498,.F.);
#221 = FACE_BOUND('',#222,.F.);
#222 = EDGE_LOOP('',(#223,#233,#241,#249,#257,#265,#273,#281,#290,#298,
    #306,#314,#322,#330,#338,#346,#354,#362,#370,#378,#386,#394,#402,
    #410,#418,#426));
#223 = ORIENTED_EDGE('',*,*,#224,.F.);
#224 = EDGE_CURVE('',#225,#227,#229,.T.);
#225 = VERTEX_POINT('',#226);
#226 = CARTESIAN_POINT('',(-35.55,50.5,0.));
#227 = VERTEX_POINT('',#228);
#228 = CARTESIAN_POINT('',(-26.35,50.5,0.));
#229 = LINE('',#230,#231);
#230 = CARTESIAN_POINT('',(-17.775,50.5,0.));
#231 = VECTOR('',#232,1.);
#232 = DIRECTION('',(1.,0.,0.));
#233 = ORIENTED_EDGE('',*,*,#234,.T.);
#234 = EDGE_CURVE('',#225,#235,#237,.T.);
#235 = VERTEX_POINT('',#236);
#236 = CARTESIAN_POINT('',(-35.55,-34.1,0.));
#237 = LINE('',#238,#239);
#238 = CARTESIAN_POINT('',(-35.55,51.1,0.));
#239 = VECTOR('',#240,1.);
#240 = DIRECTION('',(0.,-1.,0.));
#241 = ORIENTED_EDGE('',*,*,#242,.T.);
#242 = EDGE_CURVE('',#235,#243,#245,.T.);
#243 = VERTEX_POINT('',#244);
#244 = CARTESIAN_POINT('',(-25.95,-34.1,0.));
#245 = LINE('',#246,#247);
#246 = CARTESIAN_POINT('',(-35.55,-34.1,0.));
#247 = VECTOR('',#248,1.);
#248 = DIRECTION('',(1.,0.,0.));
#249 = ORIENTED_EDGE('',*,*,#250,.T.);
#250 = EDGE_CURVE('',#243,#251,#253,.T.);
#251 = VERTEX_POINT('',#252);
#252 = CARTESIAN_POINT('',(-25.95,-45.1,0.));
#253 = LINE('',#254,#255);
#254 = CARTESIAN_POINT('',(-25.95,-34.1,0.));
#255 = VECTOR('',#256,1.);
#256 = DIRECTION('',(0.,-1.,0.));
#257 = ORIENTED_EDGE('',*,*,#258,.T.);
#258 = EDGE_CURVE('',#251,#259,#261,.T.);
#259 = VERTEX_POINT('',#260);
#260 = CARTESIAN_POINT('',(-35.55,-45.1,0.));
#261 = LINE('',#262,#263);
#262 = CARTESIAN_POINT('',(-25.95,-45.1,0.));
#263 = VECTOR('',#264,1.);
#264 = DIRECTION('',(-1.,0.,0.));
#265 = ORIENTED_EDGE('',*,*,#266,.T.);
#266 = EDGE_CURVE('',#259,#267,#269,.T.);
#267 = VERTEX_POINT('',#268);
#268 = CARTESIAN_POINT('',(-35.55,-51.1,0.));
#269 = LINE('',#270,#271);
#270 = CARTESIAN_POINT('',(-35.55,51.1,0.));
#271 = VECTOR('',#272,1.);
#272 = DIRECTION('',(0.,-1.,0.));
#273 = ORIENTED_EDGE('',*,*,#274,.T.);
#274 = EDGE_CURVE('',#267,#275,#277,.T.);
#275 = VERTEX_POINT('',#276);
#276 = CARTESIAN_POINT('',(12.941742095347,-51.1,0.));
#277 = LINE('',#278,#279);
#278 = CARTESIAN_POINT('',(-35.55,-51.1,0.));
#279 = VECTOR('',#280,1.);
#280 = DIRECTION('',(1.,0.,0.));
#281 = ORIENTED_EDGE('',*,*,#282,.F.);
#282 = EDGE_CURVE('',#283,#275,#285,.T.);
#283 = VERTEX_POINT('',#284);
#284 = CARTESIAN_POINT('',(26.437632589278,-35.86575660677,0.));
#285 = CIRCLE('',#286,12.);
#286 = AXIS2_PLACEMENT_3D('',#287,#288,#289);
#287 = CARTESIAN_POINT('',(24.45,-47.7,0.));
#288 = DIRECTION('',(0.,0.,1.));
#289 = DIRECTION('',(1.,0.,0.));
#290 = ORIENTED_EDGE('',*,*,#291,.T.);
#291 = EDGE_CURVE('',#283,#292,#294,.T.);
#292 = VERTEX_POINT('',#293);
#293 = CARTESIAN_POINT('',(35.55,-27.44039475392,0.));
#294 = LINE('',#295,#296);
#295 = CARTESIAN_POINT('',(28.250159951583,-34.18988049168,-1.1E-16));
#296 = VECTOR('',#297,1.);
#297 = DIRECTION('',(0.734243137708,0.678886599314,0.));
#298 = ORIENTED_EDGE('',*,*,#299,.T.);
#299 = EDGE_CURVE('',#292,#300,#302,.T.);
#300 = VERTEX_POINT('',#301);
#301 = CARTESIAN_POINT('',(35.55,50.5,0.));
#302 = LINE('',#303,#304);
#303 = CARTESIAN_POINT('',(35.55,-51.1,0.));
#304 = VECTOR('',#305,1.);
#305 = DIRECTION('',(0.,1.,0.));
#306 = ORIENTED_EDGE('',*,*,#307,.T.);
#307 = EDGE_CURVE('',#300,#308,#310,.T.);
#308 = VERTEX_POINT('',#309);
#309 = CARTESIAN_POINT('',(33.55,50.5,0.));
#310 = LINE('',#311,#312);
#311 = CARTESIAN_POINT('',(17.775,50.5,0.));
#312 = VECTOR('',#313,1.);
#313 = DIRECTION('',(-1.,0.,0.));
#314 = ORIENTED_EDGE('',*,*,#315,.F.);
#315 = EDGE_CURVE('',#316,#308,#318,.T.);
#316 = VERTEX_POINT('',#317);
#317 = CARTESIAN_POINT('',(33.55,49.5,0.));
#318 = LINE('',#319,#320);
#319 = CARTESIAN_POINT('',(33.55,24.75,0.));
#320 = VECTOR('',#321,1.);
#321 = DIRECTION('',(0.,1.,0.));
#322 = ORIENTED_EDGE('',*,*,#323,.F.);
#323 = EDGE_CURVE('',#324,#316,#326,.T.);
#324 = VERTEX_POINT('',#325);
#325 = CARTESIAN_POINT('',(31.95,49.5,0.));
#326 = LINE('',#327,#328);
#327 = CARTESIAN_POINT('',(15.975,49.5,0.));
#328 = VECTOR('',#329,1.);
#329 = DIRECTION('',(1.,0.,0.));
#330 = ORIENTED_EDGE('',*,*,#331,.F.);
#331 = EDGE_CURVE('',#332,#324,#334,.T.);
#332 = VERTEX_POINT('',#333);
#333 = CARTESIAN_POINT('',(31.95,50.5,0.));
#334 = LINE('',#335,#336);
#335 = CARTESIAN_POINT('',(31.95,25.9467965,0.));
#336 = VECTOR('',#337,1.);
#337 = DIRECTION('',(0.,-1.,0.));
#338 = ORIENTED_EDGE('',*,*,#339,.T.);
#339 = EDGE_CURVE('',#332,#340,#342,.T.);
#340 = VERTEX_POINT('',#341);
#341 = CARTESIAN_POINT('',(25.55,50.5,0.));
#342 = LINE('',#343,#344);
#343 = CARTESIAN_POINT('',(17.775,50.5,0.));
#344 = VECTOR('',#345,1.);
#345 = DIRECTION('',(-1.,0.,0.));
#346 = ORIENTED_EDGE('',*,*,#347,.F.);
#347 = EDGE_CURVE('',#348,#340,#350,.T.);
#348 = VERTEX_POINT('',#349);
#349 = CARTESIAN_POINT('',(25.55,49.500000000008,0.));
#350 = LINE('',#351,#352);
#351 = CARTESIAN_POINT('',(25.55,24.750000000004,0.));
#352 = VECTOR('',#353,1.);
#353 = DIRECTION('',(0.,1.,0.));
#354 = ORIENTED_EDGE('',*,*,#355,.F.);
#355 = EDGE_CURVE('',#356,#348,#358,.T.);
#356 = VERTEX_POINT('',#357);
#357 = CARTESIAN_POINT('',(15.75,49.500000000008,0.));
#358 = LINE('',#359,#360);
#359 = CARTESIAN_POINT('',(7.875,49.500000000008,0.));
#360 = VECTOR('',#361,1.);
#361 = DIRECTION('',(1.,0.,0.));
#362 = ORIENTED_EDGE('',*,*,#363,.F.);
#363 = EDGE_CURVE('',#364,#356,#366,.T.);
#364 = VERTEX_POINT('',#365);
#365 = CARTESIAN_POINT('',(15.75,50.5,0.));
#366 = LINE('',#367,#368);
#367 = CARTESIAN_POINT('',(15.75,25.25,0.));
#368 = VECTOR('',#369,1.);
#369 = DIRECTION('',(0.,-1.,0.));
#370 = ORIENTED_EDGE('',*,*,#371,.F.);
#371 = EDGE_CURVE('',#372,#364,#374,.T.);
#372 = VERTEX_POINT('',#373);
#373 = CARTESIAN_POINT('',(9.3,50.5,0.));
#374 = LINE('',#375,#376);
#375 = CARTESIAN_POINT('',(4.65,50.5,0.));
#376 = VECTOR('',#377,1.);
#377 = DIRECTION('',(1.,0.,0.));
#378 = ORIENTED_EDGE('',*,*,#379,.F.);
#379 = EDGE_CURVE('',#380,#372,#382,.T.);
#380 = VERTEX_POINT('',#381);
#381 = CARTESIAN_POINT('',(9.3,49.5,0.));
#382 = LINE('',#383,#384);
#383 = CARTESIAN_POINT('',(9.3,24.75,0.));
#384 = VECTOR('',#385,1.);
#385 = DIRECTION('',(0.,1.,0.));
#386 = ORIENTED_EDGE('',*,*,#387,.F.);
#387 = EDGE_CURVE('',#388,#380,#390,.T.);
#388 = VERTEX_POINT('',#389);
#389 = CARTESIAN_POINT('',(-9.35,49.5,0.));
#390 = LINE('',#391,#392);
#391 = CARTESIAN_POINT('',(-4.675,49.5,0.));
#392 = VECTOR('',#393,1.);
#393 = DIRECTION('',(1.,0.,0.));
#394 = ORIENTED_EDGE('',*,*,#395,.F.);
#395 = EDGE_CURVE('',#396,#388,#398,.T.);
#396 = VERTEX_POINT('',#397);
#397 = CARTESIAN_POINT('',(-9.35,50.5,0.));
#398 = LINE('',#399,#400);
#399 = CARTESIAN_POINT('',(-9.35,25.25,0.));
#400 = VECTOR('',#401,1.);
#401 = DIRECTION('',(0.,-1.,0.));
#402 = ORIENTED_EDGE('',*,*,#403,.F.);
#403 = EDGE_CURVE('',#404,#396,#406,.T.);
#404 = VERTEX_POINT('',#405);
#405 = CARTESIAN_POINT('',(-24.55,50.5,0.));
#406 = LINE('',#407,#408);
#407 = CARTESIAN_POINT('',(-12.275,50.5,0.));
#408 = VECTOR('',#409,1.);
#409 = DIRECTION('',(1.,0.,0.));
#410 = ORIENTED_EDGE('',*,*,#411,.F.);
#411 = EDGE_CURVE('',#412,#404,#414,.T.);
#412 = VERTEX_POINT('',#413);
#413 = CARTESIAN_POINT('',(-24.55,49.5,0.));
#414 = LINE('',#415,#416);
#415 = CARTESIAN_POINT('',(-24.55,24.75,0.));
#416 = VECTOR('',#417,1.);
#417 = DIRECTION('',(0.,1.,0.));
#418 = ORIENTED_EDGE('',*,*,#419,.F.);
#419 = EDGE_CURVE('',#420,#412,#422,.T.);
#420 = VERTEX_POINT('',#421);
#421 = CARTESIAN_POINT('',(-26.35,49.5,0.));
#422 = LINE('',#423,#424);
#423 = CARTESIAN_POINT('',(-13.175,49.5,0.));
#424 = VECTOR('',#425,1.);
#425 = DIRECTION('',(1.,0.,0.));
#426 = ORIENTED_EDGE('',*,*,#427,.F.);
#427 = EDGE_CURVE('',#227,#420,#428,.T.);
#428 = LINE('',#429,#430);
#429 = CARTESIAN_POINT('',(-26.35,25.25,0.));
#430 = VECTOR('',#431,1.);
#431 = DIRECTION('',(0.,-1.,0.));
#432 = FACE_BOUND('',#433,.F.);
#433 = EDGE_LOOP('',(#434,#440,#441,#442));
#434 = ORIENTED_EDGE('',*,*,#435,.T.);
#435 = EDGE_CURVE('',#178,#88,#436,.T.);
#436 = LINE('',#437,#438);
#437 = CARTESIAN_POINT('',(-3.95,-37.4,0.));
#438 = VECTOR('',#439,1.);
#439 = DIRECTION('',(-1.,0.,0.));
#440 = ORIENTED_EDGE('',*,*,#95,.T.);
#441 = ORIENTED_EDGE('',*,*,#142,.T.);
#442 = ORIENTED_EDGE('',*,*,#177,.T.);
#443 = FACE_BOUND('',#444,.F.);
#444 = EDGE_LOOP('',(#445));
#445 = ORIENTED_EDGE('',*,*,#446,.F.);
#446 = EDGE_CURVE('',#447,#447,#449,.T.);
#447 = VERTEX_POINT('',#448);
#448 = CARTESIAN_POINT('',(-28.025,-8.8,0.));
#449 = CIRCLE('',#450,2.575);
#450 = AXIS2_PLACEMENT_3D('',#451,#452,#453);
#451 = CARTESIAN_POINT('',(-30.6,-8.8,0.));
#452 = DIRECTION('',(0.,0.,1.));
#453 = DIRECTION('',(1.,0.,0.));
#454 = FACE_BOUND('',#455,.F.);
#455 = EDGE_LOOP('',(#456));
#456 = ORIENTED_EDGE('',*,*,#457,.F.);
#457 = EDGE_CURVE('',#458,#458,#460,.T.);
#458 = VERTEX_POINT('',#459);
#459 = CARTESIAN_POINT('',(1.25,-26.1,0.));
#460 = CIRCLE('',#461,1.25);
#461 = AXIS2_PLACEMENT_3D('',#462,#463,#464);
#462 = CARTESIAN_POINT('',(2.27E-15,-26.1,0.));
#463 = DIRECTION('',(0.,0.,1.));
#464 = DIRECTION('',(1.,0.,0.));
#465 = FACE_BOUND('',#466,.F.);
#466 = EDGE_LOOP('',(#467));
#467 = ORIENTED_EDGE('',*,*,#468,.F.);
#468 = EDGE_CURVE('',#469,#469,#471,.T.);
#469 = VERTEX_POINT('',#470);
#470 = CARTESIAN_POINT('',(33.175,-8.8,0.));
#471 = CIRCLE('',#472,2.575);
#472 = AXIS2_PLACEMENT_3D('',#473,#474,#475);
#473 = CARTESIAN_POINT('',(30.6,-8.8,0.));
#474 = DIRECTION('',(0.,0.,1.));
#475 = DIRECTION('',(1.,0.,0.));
#476 = FACE_BOUND('',#477,.F.);
#477 = EDGE_LOOP('',(#478));
#478 = ORIENTED_EDGE('',*,*,#479,.F.);
#479 = EDGE_CURVE('',#480,#480,#482,.T.);
#480 = VERTEX_POINT('',#481);
#481 = CARTESIAN_POINT('',(-28.025,46.4,0.));
#482 = CIRCLE('',#483,2.575);
#483 = AXIS2_PLACEMENT_3D('',#484,#485,#486);
#484 = CARTESIAN_POINT('',(-30.6,46.4,0.));
#485 = DIRECTION('',(0.,0.,1.));
#486 = DIRECTION('',(1.,0.,0.));
#487 = FACE_BOUND('',#488,.F.);
#488 = EDGE_LOOP('',(#489));
#489 = ORIENTED_EDGE('',*,*,#490,.F.);
#490 = EDGE_CURVE('',#491,#491,#493,.T.);
#491 = VERTEX_POINT('',#492);
#492 = CARTESIAN_POINT('',(33.175,46.4,0.));
#493 = CIRCLE('',#494,2.575);
#494 = AXIS2_PLACEMENT_3D('',#495,#496,#497);
#495 = CARTESIAN_POINT('',(30.6,46.4,0.));
#496 = DIRECTION('',(0.,0.,1.));
#497 = DIRECTION('',(1.,0.,0.));
#498 = PLANE('',#499);
#499 = AXIS2_PLACEMENT_3D('',#500,#501,#502);
#500 = CARTESIAN_POINT('',(0.,0.,0.));
#501 = DIRECTION('',(0.,0.,1.));
#502 = DIRECTION('',(1.,0.,0.));
#503 = ADVANCED_FACE('',(#504),#515,.F.);
#504 = FACE_BOUND('',#505,.T.);
#505 = EDGE_LOOP('',(#506,#507,#508,#509));
#506 = ORIENTED_EDGE('',*,*,#79,.T.);
#507 = ORIENTED_EDGE('',*,*,#210,.T.);
#508 = ORIENTED_EDGE('',*,*,#193,.T.);
#509 = ORIENTED_EDGE('',*,*,#510,.T.);
#510 = EDGE_CURVE('',#186,#80,#511,.T.);
#511 = LINE('',#512,#513);
#512 = CARTESIAN_POINT('',(-3.95,-37.4,-8.));
#513 = VECTOR('',#514,1.);
#514 = DIRECTION('',(-1.,0.,0.));
#515 = PLANE('',#516);
#516 = AXIS2_PLACEMENT_3D('',#517,#518,#519);
#517 = CARTESIAN_POINT('',(-8.75,-34.9,-8.));
#518 = DIRECTION('',(0.,0.,1.));
#519 = DIRECTION('',(1.,0.,0.));
#520 = ADVANCED_FACE('',(#521),#527,.F.);
#521 = FACE_BOUND('',#522,.F.);
#522 = EDGE_LOOP('',(#523,#524,#525,#526));
#523 = ORIENTED_EDGE('',*,*,#185,.T.);
#524 = ORIENTED_EDGE('',*,*,#510,.T.);
#525 = ORIENTED_EDGE('',*,*,#87,.F.);
#526 = ORIENTED_EDGE('',*,*,#435,.F.);
#527 = PLANE('',#528);
#528 = AXIS2_PLACEMENT_3D('',#529,#530,#531);
#529 = CARTESIAN_POINT('',(-3.95,-37.4,0.));
#530 = DIRECTION('',(0.,1.,0.));
#531 = DIRECTION('',(-1.,0.,0.));
#532 = ADVANCED_FACE('',(#533),#558,.F.);
#533 = FACE_BOUND('',#534,.F.);
#534 = EDGE_LOOP('',(#535,#545,#551,#552));
#535 = ORIENTED_EDGE('',*,*,#536,.F.);
#536 = EDGE_CURVE('',#537,#539,#541,.T.);
#537 = VERTEX_POINT('',#538);
#538 = CARTESIAN_POINT('',(-35.55,50.5,1.));
#539 = VERTEX_POINT('',#540);
#540 = CARTESIAN_POINT('',(-26.35,50.5,1.));
#541 = LINE('',#542,#543);
#542 = CARTESIAN_POINT('',(-35.55,50.5,1.));
#543 = VECTOR('',#544,1.);
#544 = DIRECTION('',(1.,0.,0.));
#545 = ORIENTED_EDGE('',*,*,#546,.T.);
#546 = EDGE_CURVE('',#537,#225,#547,.T.);
#547 = LINE('',#548,#549);
#548 = CARTESIAN_POINT('',(-35.55,50.5,1.));
#549 = VECTOR('',#550,1.);
#550 = DIRECTION('',(-0.,-0.,-1.));
#551 = ORIENTED_EDGE('',*,*,#224,.T.);
#552 = ORIENTED_EDGE('',*,*,#553,.F.);
#553 = EDGE_CURVE('',#539,#227,#554,.T.);
#554 = LINE('',#555,#556);
#555 = CARTESIAN_POINT('',(-26.35,50.5,1.));
#556 = VECTOR('',#557,1.);
#557 = DIRECTION('',(-0.,-0.,-1.));
#558 = PLANE('',#559);
#559 = AXIS2_PLACEMENT_3D('',#560,#561,#562);
#560 = CARTESIAN_POINT('',(-35.55,50.5,1.));
#561 = DIRECTION('',(0.,-1.,0.));
#562 = DIRECTION('',(1.,0.,0.));
#563 = ADVANCED_FACE('',(#564),#582,.F.);
#564 = FACE_BOUND('',#565,.F.);
#565 = EDGE_LOOP('',(#566,#574,#575,#576));
#566 = ORIENTED_EDGE('',*,*,#567,.F.);
#567 = EDGE_CURVE('',#539,#568,#570,.T.);
#568 = VERTEX_POINT('',#569);
#569 = CARTESIAN_POINT('',(-26.35,49.5,1.));
#570 = LINE('',#571,#572);
#571 = CARTESIAN_POINT('',(-26.35,50.5,1.));
#572 = VECTOR('',#573,1.);
#573 = DIRECTION('',(0.,-1.,0.));
#574 = ORIENTED_EDGE('',*,*,#553,.T.);
#575 = ORIENTED_EDGE('',*,*,#427,.T.);
#576 = ORIENTED_EDGE('',*,*,#577,.F.);
#577 = EDGE_CURVE('',#568,#420,#578,.T.);
#578 = LINE('',#579,#580);
#579 = CARTESIAN_POINT('',(-26.35,49.5,1.));
#580 = VECTOR('',#581,1.);
#581 = DIRECTION('',(-0.,-0.,-1.));
#582 = PLANE('',#583);
#583 = AXIS2_PLACEMENT_3D('',#584,#585,#586);
#584 = CARTESIAN_POINT('',(-26.35,50.5,1.));
#585 = DIRECTION('',(-1.,0.,0.));
#586 = DIRECTION('',(0.,-1.,0.));
#587 = ADVANCED_FACE('',(#588),#606,.F.);
#588 = FACE_BOUND('',#589,.F.);
#589 = EDGE_LOOP('',(#590,#598,#599,#600));
#590 = ORIENTED_EDGE('',*,*,#591,.F.);
#591 = EDGE_CURVE('',#568,#592,#594,.T.);
#592 = VERTEX_POINT('',#593);
#593 = CARTESIAN_POINT('',(-24.55,49.5,1.));
#594 = LINE('',#595,#596);
#595 = CARTESIAN_POINT('',(-26.35,49.5,1.));
#596 = VECTOR('',#597,1.);
#597 = DIRECTION('',(1.,0.,0.));
#598 = ORIENTED_EDGE('',*,*,#577,.T.);
#599 = ORIENTED_EDGE('',*,*,#419,.T.);
#600 = ORIENTED_EDGE('',*,*,#601,.F.);
#601 = EDGE_CURVE('',#592,#412,#602,.T.);
#602 = LINE('',#603,#604);
#603 = CARTESIAN_POINT('',(-24.55,49.5,1.));
#604 = VECTOR('',#605,1.);
#605 = DIRECTION('',(-0.,-0.,-1.));
#606 = PLANE('',#607);
#607 = AXIS2_PLACEMENT_3D('',#608,#609,#610);
#608 = CARTESIAN_POINT('',(-26.35,49.5,1.));
#609 = DIRECTION('',(0.,-1.,0.));
#610 = DIRECTION('',(1.,0.,0.));
#611 = ADVANCED_FACE('',(#612),#630,.F.);
#612 = FACE_BOUND('',#613,.F.);
#613 = EDGE_LOOP('',(#614,#622,#623,#624));
#614 = ORIENTED_EDGE('',*,*,#615,.F.);
#615 = EDGE_CURVE('',#592,#616,#618,.T.);
#616 = VERTEX_POINT('',#617);
#617 = CARTESIAN_POINT('',(-24.55,50.5,1.));
#618 = LINE('',#619,#620);
#619 = CARTESIAN_POINT('',(-24.55,49.5,1.));
#620 = VECTOR('',#621,1.);
#621 = DIRECTION('',(0.,1.,0.));
#622 = ORIENTED_EDGE('',*,*,#601,.T.);
#623 = ORIENTED_EDGE('',*,*,#411,.T.);
#624 = ORIENTED_EDGE('',*,*,#625,.F.);
#625 = EDGE_CURVE('',#616,#404,#626,.T.);
#626 = LINE('',#627,#628);
#627 = CARTESIAN_POINT('',(-24.55,50.5,1.));
#628 = VECTOR('',#629,1.);
#629 = DIRECTION('',(-0.,-0.,-1.));
#630 = PLANE('',#631);
#631 = AXIS2_PLACEMENT_3D('',#632,#633,#634);
#632 = CARTESIAN_POINT('',(-24.55,49.5,1.));
#633 = DIRECTION('',(1.,0.,0.));
#634 = DIRECTION('',(0.,1.,0.));
#635 = ADVANCED_FACE('',(#636),#670,.F.);
#636 = FACE_BOUND('',#637,.F.);
#637 = EDGE_LOOP('',(#638,#646,#647,#648,#656,#664));
#638 = ORIENTED_EDGE('',*,*,#639,.F.);
#639 = EDGE_CURVE('',#616,#640,#642,.T.);
#640 = VERTEX_POINT('',#641);
#641 = CARTESIAN_POINT('',(-19.45,50.5,1.));
#642 = LINE('',#643,#644);
#643 = CARTESIAN_POINT('',(-24.55,50.5,1.));
#644 = VECTOR('',#645,1.);
#645 = DIRECTION('',(1.,0.,0.));
#646 = ORIENTED_EDGE('',*,*,#625,.T.);
#647 = ORIENTED_EDGE('',*,*,#403,.T.);
#648 = ORIENTED_EDGE('',*,*,#649,.F.);
#649 = EDGE_CURVE('',#650,#396,#652,.T.);
#650 = VERTEX_POINT('',#651);
#651 = CARTESIAN_POINT('',(-9.35,50.5,1.));
#652 = LINE('',#653,#654);
#653 = CARTESIAN_POINT('',(-9.35,50.5,1.));
#654 = VECTOR('',#655,1.);
#655 = DIRECTION('',(-0.,-0.,-1.));
#656 = ORIENTED_EDGE('',*,*,#657,.F.);
#657 = EDGE_CURVE('',#658,#650,#660,.T.);
#658 = VERTEX_POINT('',#659);
#659 = CARTESIAN_POINT('',(-14.45,50.5,1.));
#660 = LINE('',#661,#662);
#661 = CARTESIAN_POINT('',(-24.55,50.5,1.));
#662 = VECTOR('',#663,1.);
#663 = DIRECTION('',(1.,0.,0.));
#664 = ORIENTED_EDGE('',*,*,#665,.F.);
#665 = EDGE_CURVE('',#640,#658,#666,.T.);
#666 = LINE('',#667,#668);
#667 = CARTESIAN_POINT('',(-24.55,50.5,1.));
#668 = VECTOR('',#669,1.);
#669 = DIRECTION('',(1.,0.,0.));
#670 = PLANE('',#671);
#671 = AXIS2_PLACEMENT_3D('',#672,#673,#674);
#672 = CARTESIAN_POINT('',(-24.55,50.5,1.));
#673 = DIRECTION('',(0.,-1.,0.));
#674 = DIRECTION('',(1.,0.,0.));
#675 = ADVANCED_FACE('',(#676),#694,.F.);
#676 = FACE_BOUND('',#677,.F.);
#677 = EDGE_LOOP('',(#678,#686,#687,#688));
#678 = ORIENTED_EDGE('',*,*,#679,.F.);
#679 = EDGE_CURVE('',#650,#680,#682,.T.);
#680 = VERTEX_POINT('',#681);
#681 = CARTESIAN_POINT('',(-9.35,49.5,1.));
#682 = LINE('',#683,#684);
#683 = CARTESIAN_POINT('',(-9.35,50.5,1.));
#684 = VECTOR('',#685,1.);
#685 = DIRECTION('',(0.,-1.,0.));
#686 = ORIENTED_EDGE('',*,*,#649,.T.);
#687 = ORIENTED_EDGE('',*,*,#395,.T.);
#688 = ORIENTED_EDGE('',*,*,#689,.F.);
#689 = EDGE_CURVE('',#680,#388,#690,.T.);
#690 = LINE('',#691,#692);
#691 = CARTESIAN_POINT('',(-9.35,49.5,1.));
#692 = VECTOR('',#693,1.);
#693 = DIRECTION('',(-0.,-0.,-1.));
#694 = PLANE('',#695);
#695 = AXIS2_PLACEMENT_3D('',#696,#697,#698);
#696 = CARTESIAN_POINT('',(-9.35,50.5,1.));
#697 = DIRECTION('',(-1.,0.,0.));
#698 = DIRECTION('',(0.,-1.,0.));
#699 = ADVANCED_FACE('',(#700),#718,.T.);
#700 = FACE_BOUND('',#701,.T.);
#701 = EDGE_LOOP('',(#702,#710,#716,#717));
#702 = ORIENTED_EDGE('',*,*,#703,.T.);
#703 = EDGE_CURVE('',#680,#704,#706,.T.);
#704 = VERTEX_POINT('',#705);
#705 = CARTESIAN_POINT('',(9.3,49.5,1.));
#706 = LINE('',#707,#708);
#707 = CARTESIAN_POINT('',(7.7,49.5,1.));
#708 = VECTOR('',#709,1.);
#709 = DIRECTION('',(1.,0.,0.));
#710 = ORIENTED_EDGE('',*,*,#711,.T.);
#711 = EDGE_CURVE('',#704,#380,#712,.T.);
#712 = LINE('',#713,#714);
#713 = CARTESIAN_POINT('',(9.3,49.5,1.));
#714 = VECTOR('',#715,1.);
#715 = DIRECTION('',(-0.,-0.,-1.));
#716 = ORIENTED_EDGE('',*,*,#387,.F.);
#717 = ORIENTED_EDGE('',*,*,#689,.F.);
#718 = PLANE('',#719);
#719 = AXIS2_PLACEMENT_3D('',#720,#721,#722);
#720 = CARTESIAN_POINT('',(-2.500000000009E-02,49.5,0.5));
#721 = DIRECTION('',(-1.25E-15,1.,0.));
#722 = DIRECTION('',(1.,1.25E-15,0.));
#723 = ADVANCED_FACE('',(#724),#742,.F.);
#724 = FACE_BOUND('',#725,.F.);
#725 = EDGE_LOOP('',(#726,#734,#735,#736));
#726 = ORIENTED_EDGE('',*,*,#727,.F.);
#727 = EDGE_CURVE('',#704,#728,#730,.T.);
#728 = VERTEX_POINT('',#729);
#729 = CARTESIAN_POINT('',(9.3,50.5,1.));
#730 = LINE('',#731,#732);
#731 = CARTESIAN_POINT('',(9.3,49.5,1.));
#732 = VECTOR('',#733,1.);
#733 = DIRECTION('',(0.,1.,0.));
#734 = ORIENTED_EDGE('',*,*,#711,.T.);
#735 = ORIENTED_EDGE('',*,*,#379,.T.);
#736 = ORIENTED_EDGE('',*,*,#737,.F.);
#737 = EDGE_CURVE('',#728,#372,#738,.T.);
#738 = LINE('',#739,#740);
#739 = CARTESIAN_POINT('',(9.3,50.5,1.));
#740 = VECTOR('',#741,1.);
#741 = DIRECTION('',(-0.,-0.,-1.));
#742 = PLANE('',#743);
#743 = AXIS2_PLACEMENT_3D('',#744,#745,#746);
#744 = CARTESIAN_POINT('',(9.3,49.5,1.));
#745 = DIRECTION('',(1.,0.,0.));
#746 = DIRECTION('',(0.,1.,0.));
#747 = ADVANCED_FACE('',(#748),#766,.F.);
#748 = FACE_BOUND('',#749,.F.);
#749 = EDGE_LOOP('',(#750,#758,#759,#760));
#750 = ORIENTED_EDGE('',*,*,#751,.F.);
#751 = EDGE_CURVE('',#728,#752,#754,.T.);
#752 = VERTEX_POINT('',#753);
#753 = CARTESIAN_POINT('',(15.75,50.5,1.));
#754 = LINE('',#755,#756);
#755 = CARTESIAN_POINT('',(9.3,50.5,1.));
#756 = VECTOR('',#757,1.);
#757 = DIRECTION('',(1.,0.,0.));
#758 = ORIENTED_EDGE('',*,*,#737,.T.);
#759 = ORIENTED_EDGE('',*,*,#371,.T.);
#760 = ORIENTED_EDGE('',*,*,#761,.F.);
#761 = EDGE_CURVE('',#752,#364,#762,.T.);
#762 = LINE('',#763,#764);
#763 = CARTESIAN_POINT('',(15.75,50.5,1.));
#764 = VECTOR('',#765,1.);
#765 = DIRECTION('',(-0.,-0.,-1.));
#766 = PLANE('',#767);
#767 = AXIS2_PLACEMENT_3D('',#768,#769,#770);
#768 = CARTESIAN_POINT('',(9.3,50.5,1.));
#769 = DIRECTION('',(0.,-1.,0.));
#770 = DIRECTION('',(1.,0.,0.));
#771 = ADVANCED_FACE('',(#772),#790,.F.);
#772 = FACE_BOUND('',#773,.F.);
#773 = EDGE_LOOP('',(#774,#782,#783,#784));
#774 = ORIENTED_EDGE('',*,*,#775,.F.);
#775 = EDGE_CURVE('',#752,#776,#778,.T.);
#776 = VERTEX_POINT('',#777);
#777 = CARTESIAN_POINT('',(15.75,49.500000000008,1.));
#778 = LINE('',#779,#780);
#779 = CARTESIAN_POINT('',(15.75,50.5,1.));
#780 = VECTOR('',#781,1.);
#781 = DIRECTION('',(0.,-1.,0.));
#782 = ORIENTED_EDGE('',*,*,#761,.T.);
#783 = ORIENTED_EDGE('',*,*,#363,.T.);
#784 = ORIENTED_EDGE('',*,*,#785,.F.);
#785 = EDGE_CURVE('',#776,#356,#786,.T.);
#786 = LINE('',#787,#788);
#787 = CARTESIAN_POINT('',(15.75,49.500000000008,1.));
#788 = VECTOR('',#789,1.);
#789 = DIRECTION('',(-0.,-0.,-1.));
#790 = PLANE('',#791);
#791 = AXIS2_PLACEMENT_3D('',#792,#793,#794);
#792 = CARTESIAN_POINT('',(15.75,50.5,1.));
#793 = DIRECTION('',(-1.,0.,0.));
#794 = DIRECTION('',(0.,-1.,0.));
#795 = ADVANCED_FACE('',(#796),#830,.F.);
#796 = FACE_BOUND('',#797,.F.);
#797 = EDGE_LOOP('',(#798,#806,#807,#808,#816,#824));
#798 = ORIENTED_EDGE('',*,*,#799,.F.);
#799 = EDGE_CURVE('',#776,#800,#802,.T.);
#800 = VERTEX_POINT('',#801);
#801 = CARTESIAN_POINT('',(18.85,49.500000000008,1.));
#802 = LINE('',#803,#804);
#803 = CARTESIAN_POINT('',(15.75,49.500000000008,1.));
#804 = VECTOR('',#805,1.);
#805 = DIRECTION('',(1.,0.,0.));
#806 = ORIENTED_EDGE('',*,*,#785,.T.);
#807 = ORIENTED_EDGE('',*,*,#355,.T.);
#808 = ORIENTED_EDGE('',*,*,#809,.F.);
#809 = EDGE_CURVE('',#810,#348,#812,.T.);
#810 = VERTEX_POINT('',#811);
#811 = CARTESIAN_POINT('',(25.55,49.500000000008,1.));
#812 = LINE('',#813,#814);
#813 = CARTESIAN_POINT('',(25.55,49.500000000008,1.));
#814 = VECTOR('',#815,1.);
#815 = DIRECTION('',(-0.,-0.,-1.));
#816 = ORIENTED_EDGE('',*,*,#817,.F.);
#817 = EDGE_CURVE('',#818,#810,#820,.T.);
#818 = VERTEX_POINT('',#819);
#819 = CARTESIAN_POINT('',(20.15,49.500000000008,1.));
#820 = LINE('',#821,#822);
#821 = CARTESIAN_POINT('',(15.75,49.500000000008,1.));
#822 = VECTOR('',#823,1.);
#823 = DIRECTION('',(1.,0.,0.));
#824 = ORIENTED_EDGE('',*,*,#825,.F.);
#825 = EDGE_CURVE('',#800,#818,#826,.T.);
#826 = LINE('',#827,#828);
#827 = CARTESIAN_POINT('',(15.75,49.500000000008,1.));
#828 = VECTOR('',#829,1.);
#829 = DIRECTION('',(1.,0.,0.));
#830 = PLANE('',#831);
#831 = AXIS2_PLACEMENT_3D('',#832,#833,#834);
#832 = CARTESIAN_POINT('',(15.75,49.500000000008,1.));
#833 = DIRECTION('',(0.,-1.,0.));
#834 = DIRECTION('',(1.,0.,0.));
#835 = ADVANCED_FACE('',(#836),#854,.F.);
#836 = FACE_BOUND('',#837,.F.);
#837 = EDGE_LOOP('',(#838,#846,#847,#848));
#838 = ORIENTED_EDGE('',*,*,#839,.F.);
#839 = EDGE_CURVE('',#810,#840,#842,.T.);
#840 = VERTEX_POINT('',#841);
#841 = CARTESIAN_POINT('',(25.55,50.5,1.));
#842 = LINE('',#843,#844);
#843 = CARTESIAN_POINT('',(25.55,49.500000000008,1.));
#844 = VECTOR('',#845,1.);
#845 = DIRECTION('',(0.,1.,0.));
#846 = ORIENTED_EDGE('',*,*,#809,.T.);
#847 = ORIENTED_EDGE('',*,*,#347,.T.);
#848 = ORIENTED_EDGE('',*,*,#849,.F.);
#849 = EDGE_CURVE('',#840,#340,#850,.T.);
#850 = LINE('',#851,#852);
#851 = CARTESIAN_POINT('',(25.55,50.5,1.));
#852 = VECTOR('',#853,1.);
#853 = DIRECTION('',(-0.,-0.,-1.));
#854 = PLANE('',#855);
#855 = AXIS2_PLACEMENT_3D('',#856,#857,#858);
#856 = CARTESIAN_POINT('',(25.55,49.500000000008,1.));
#857 = DIRECTION('',(1.,0.,0.));
#858 = DIRECTION('',(0.,1.,0.));
#859 = ADVANCED_FACE('',(#860),#878,.T.);
#860 = FACE_BOUND('',#861,.T.);
#861 = EDGE_LOOP('',(#862,#870,#876,#877));
#862 = ORIENTED_EDGE('',*,*,#863,.F.);
#863 = EDGE_CURVE('',#864,#840,#866,.T.);
#864 = VERTEX_POINT('',#865);
#865 = CARTESIAN_POINT('',(31.95,50.5,1.));
#866 = LINE('',#867,#868);
#867 = CARTESIAN_POINT('',(35.55,50.5,1.));
#868 = VECTOR('',#869,1.);
#869 = DIRECTION('',(-1.,0.,0.));
#870 = ORIENTED_EDGE('',*,*,#871,.F.);
#871 = EDGE_CURVE('',#332,#864,#872,.T.);
#872 = LINE('',#873,#874);
#873 = CARTESIAN_POINT('',(31.95,50.5,1.));
#874 = VECTOR('',#875,1.);
#875 = DIRECTION('',(0.,0.,1.));
#876 = ORIENTED_EDGE('',*,*,#339,.T.);
#877 = ORIENTED_EDGE('',*,*,#849,.F.);
#878 = PLANE('',#879);
#879 = AXIS2_PLACEMENT_3D('',#880,#881,#882);
#880 = CARTESIAN_POINT('',(35.55,50.5,1.));
#881 = DIRECTION('',(0.,1.,0.));
#882 = DIRECTION('',(-1.,0.,0.));
#883 = ADVANCED_FACE('',(#884),#902,.F.);
#884 = FACE_BOUND('',#885,.F.);
#885 = EDGE_LOOP('',(#886,#894,#895,#896));
#886 = ORIENTED_EDGE('',*,*,#887,.F.);
#887 = EDGE_CURVE('',#864,#888,#890,.T.);
#888 = VERTEX_POINT('',#889);
#889 = CARTESIAN_POINT('',(31.95,49.5,1.));
#890 = LINE('',#891,#892);
#891 = CARTESIAN_POINT('',(31.95,51.893593,1.));
#892 = VECTOR('',#893,1.);
#893 = DIRECTION('',(0.,-1.,0.));
#894 = ORIENTED_EDGE('',*,*,#871,.F.);
#895 = ORIENTED_EDGE('',*,*,#331,.T.);
#896 = ORIENTED_EDGE('',*,*,#897,.F.);
#897 = EDGE_CURVE('',#888,#324,#898,.T.);
#898 = LINE('',#899,#900);
#899 = CARTESIAN_POINT('',(31.95,49.5,1.));
#900 = VECTOR('',#901,1.);
#901 = DIRECTION('',(-0.,-0.,-1.));
#902 = PLANE('',#903);
#903 = AXIS2_PLACEMENT_3D('',#904,#905,#906);
#904 = CARTESIAN_POINT('',(31.95,51.893593,1.));
#905 = DIRECTION('',(-1.,0.,0.));
#906 = DIRECTION('',(0.,-1.,0.));
#907 = ADVANCED_FACE('',(#908),#926,.F.);
#908 = FACE_BOUND('',#909,.F.);
#909 = EDGE_LOOP('',(#910,#918,#919,#920));
#910 = ORIENTED_EDGE('',*,*,#911,.F.);
#911 = EDGE_CURVE('',#888,#912,#914,.T.);
#912 = VERTEX_POINT('',#913);
#913 = CARTESIAN_POINT('',(33.55,49.5,1.));
#914 = LINE('',#915,#916);
#915 = CARTESIAN_POINT('',(31.95,49.5,1.));
#916 = VECTOR('',#917,1.);
#917 = DIRECTION('',(1.,0.,0.));
#918 = ORIENTED_EDGE('',*,*,#897,.T.);
#919 = ORIENTED_EDGE('',*,*,#323,.T.);
#920 = ORIENTED_EDGE('',*,*,#921,.F.);
#921 = EDGE_CURVE('',#912,#316,#922,.T.);
#922 = LINE('',#923,#924);
#923 = CARTESIAN_POINT('',(33.55,49.5,1.));
#924 = VECTOR('',#925,1.);
#925 = DIRECTION('',(-0.,-0.,-1.));
#926 = PLANE('',#927);
#927 = AXIS2_PLACEMENT_3D('',#928,#929,#930);
#928 = CARTESIAN_POINT('',(31.95,49.5,1.));
#929 = DIRECTION('',(0.,-1.,0.));
#930 = DIRECTION('',(1.,0.,0.));
#931 = ADVANCED_FACE('',(#932),#950,.F.);
#932 = FACE_BOUND('',#933,.F.);
#933 = EDGE_LOOP('',(#934,#942,#943,#944));
#934 = ORIENTED_EDGE('',*,*,#935,.F.);
#935 = EDGE_CURVE('',#912,#936,#938,.T.);
#936 = VERTEX_POINT('',#937);
#937 = CARTESIAN_POINT('',(33.55,50.5,1.));
#938 = LINE('',#939,#940);
#939 = CARTESIAN_POINT('',(33.55,49.5,1.));
#940 = VECTOR('',#941,1.);
#941 = DIRECTION('',(0.,1.,0.));
#942 = ORIENTED_EDGE('',*,*,#921,.T.);
#943 = ORIENTED_EDGE('',*,*,#315,.T.);
#944 = ORIENTED_EDGE('',*,*,#945,.F.);
#945 = EDGE_CURVE('',#936,#308,#946,.T.);
#946 = LINE('',#947,#948);
#947 = CARTESIAN_POINT('',(33.55,50.5,1.));
#948 = VECTOR('',#949,1.);
#949 = DIRECTION('',(0.,0.,-1.));
#950 = PLANE('',#951);
#951 = AXIS2_PLACEMENT_3D('',#952,#953,#954);
#952 = CARTESIAN_POINT('',(33.55,49.5,1.));
#953 = DIRECTION('',(1.,0.,0.));
#954 = DIRECTION('',(0.,1.,0.));
#955 = ADVANCED_FACE('',(#956),#974,.T.);
#956 = FACE_BOUND('',#957,.T.);
#957 = EDGE_LOOP('',(#958,#966,#972,#973));
#958 = ORIENTED_EDGE('',*,*,#959,.F.);
#959 = EDGE_CURVE('',#960,#936,#962,.T.);
#960 = VERTEX_POINT('',#961);
#961 = CARTESIAN_POINT('',(35.55,50.5,1.));
#962 = LINE('',#963,#964);
#963 = CARTESIAN_POINT('',(35.55,50.5,1.));
#964 = VECTOR('',#965,1.);
#965 = DIRECTION('',(-1.,0.,0.));
#966 = ORIENTED_EDGE('',*,*,#967,.T.);
#967 = EDGE_CURVE('',#960,#300,#968,.T.);
#968 = LINE('',#969,#970);
#969 = CARTESIAN_POINT('',(35.55,50.5,1.));
#970 = VECTOR('',#971,1.);
#971 = DIRECTION('',(-0.,-0.,-1.));
#972 = ORIENTED_EDGE('',*,*,#307,.T.);
#973 = ORIENTED_EDGE('',*,*,#945,.F.);
#974 = PLANE('',#975);
#975 = AXIS2_PLACEMENT_3D('',#976,#977,#978);
#976 = CARTESIAN_POINT('',(35.55,50.5,1.));
#977 = DIRECTION('',(0.,1.,0.));
#978 = DIRECTION('',(-1.,0.,0.));
#979 = ADVANCED_FACE('',(#980),#998,.F.);
#980 = FACE_BOUND('',#981,.F.);
#981 = EDGE_LOOP('',(#982,#983,#991,#997));
#982 = ORIENTED_EDGE('',*,*,#299,.F.);
#983 = ORIENTED_EDGE('',*,*,#984,.F.);
#984 = EDGE_CURVE('',#985,#292,#987,.T.);
#985 = VERTEX_POINT('',#986);
#986 = CARTESIAN_POINT('',(35.55,-27.44039475392,1.));
#987 = LINE('',#988,#989);
#988 = CARTESIAN_POINT('',(35.55,-27.44039475392,1.));
#989 = VECTOR('',#990,1.);
#990 = DIRECTION('',(-0.,-0.,-1.));
#991 = ORIENTED_EDGE('',*,*,#992,.T.);
#992 = EDGE_CURVE('',#985,#960,#993,.T.);
#993 = LINE('',#994,#995);
#994 = CARTESIAN_POINT('',(35.55,-51.1,1.));
#995 = VECTOR('',#996,1.);
#996 = DIRECTION('',(0.,1.,0.));
#997 = ORIENTED_EDGE('',*,*,#967,.T.);
#998 = PLANE('',#999);
#999 = AXIS2_PLACEMENT_3D('',#1000,#1001,#1002);
#1000 = CARTESIAN_POINT('',(35.55,-51.1,0.));
#1001 = DIRECTION('',(-1.,0.,0.));
#1002 = DIRECTION('',(0.,1.,0.));
#1003 = ADVANCED_FACE('',(#1004),#1022,.T.);
#1004 = FACE_BOUND('',#1005,.T.);
#1005 = EDGE_LOOP('',(#1006,#1014,#1020,#1021));
#1006 = ORIENTED_EDGE('',*,*,#1007,.F.);
#1007 = EDGE_CURVE('',#1008,#985,#1010,.T.);
#1008 = VERTEX_POINT('',#1009);
#1009 = CARTESIAN_POINT('',(26.437632589278,-35.86575660677,1.));
#1010 = LINE('',#1011,#1012);
#1011 = CARTESIAN_POINT('',(26.437632589278,-35.86575660677,1.));
#1012 = VECTOR('',#1013,1.);
#1013 = DIRECTION('',(0.734243137708,0.678886599314,0.));
#1014 = ORIENTED_EDGE('',*,*,#1015,.T.);
#1015 = EDGE_CURVE('',#1008,#283,#1016,.T.);
#1016 = LINE('',#1017,#1018);
#1017 = CARTESIAN_POINT('',(26.437632589278,-35.86575660677,1.));
#1018 = VECTOR('',#1019,1.);
#1019 = DIRECTION('',(-0.,-0.,-1.));
#1020 = ORIENTED_EDGE('',*,*,#291,.T.);
#1021 = ORIENTED_EDGE('',*,*,#984,.F.);
#1022 = PLANE('',#1023);
#1023 = AXIS2_PLACEMENT_3D('',#1024,#1025,#1026);
#1024 = CARTESIAN_POINT('',(26.437632589278,-35.86575660677,1.));
#1025 = DIRECTION('',(0.678886599314,-0.734243137708,0.));
#1026 = DIRECTION('',(0.734243137708,0.678886599314,0.));
#1027 = ADVANCED_FACE('',(#1028),#1047,.F.);
#1028 = FACE_BOUND('',#1029,.F.);
#1029 = EDGE_LOOP('',(#1030,#1039,#1040,#1041));
#1030 = ORIENTED_EDGE('',*,*,#1031,.F.);
#1031 = EDGE_CURVE('',#1008,#1032,#1034,.T.);
#1032 = VERTEX_POINT('',#1033);
#1033 = CARTESIAN_POINT('',(12.941742095347,-51.1,1.));
#1034 = CIRCLE('',#1035,12.);
#1035 = AXIS2_PLACEMENT_3D('',#1036,#1037,#1038);
#1036 = CARTESIAN_POINT('',(24.45,-47.7,1.));
#1037 = DIRECTION('',(0.,0.,1.));
#1038 = DIRECTION('',(1.,0.,0.));
#1039 = ORIENTED_EDGE('',*,*,#1015,.T.);
#1040 = ORIENTED_EDGE('',*,*,#282,.T.);
#1041 = ORIENTED_EDGE('',*,*,#1042,.T.);
#1042 = EDGE_CURVE('',#275,#1032,#1043,.T.);
#1043 = LINE('',#1044,#1045);
#1044 = CARTESIAN_POINT('',(12.941742095347,-51.1,1.));
#1045 = VECTOR('',#1046,1.);
#1046 = DIRECTION('',(0.,0.,1.));
#1047 = CYLINDRICAL_SURFACE('',#1048,12.);
#1048 = AXIS2_PLACEMENT_3D('',#1049,#1050,#1051);
#1049 = CARTESIAN_POINT('',(24.45,-47.7,1.));
#1050 = DIRECTION('',(0.,0.,1.));
#1051 = DIRECTION('',(1.,0.,0.));
#1052 = ADVANCED_FACE('',(#1053),#1071,.F.);
#1053 = FACE_BOUND('',#1054,.F.);
#1054 = EDGE_LOOP('',(#1055,#1056,#1064,#1070));
#1055 = ORIENTED_EDGE('',*,*,#274,.F.);
#1056 = ORIENTED_EDGE('',*,*,#1057,.T.);
#1057 = EDGE_CURVE('',#267,#1058,#1060,.T.);
#1058 = VERTEX_POINT('',#1059);
#1059 = CARTESIAN_POINT('',(-35.55,-51.1,1.));
#1060 = LINE('',#1061,#1062);
#1061 = CARTESIAN_POINT('',(-35.55,-51.1,0.));
#1062 = VECTOR('',#1063,1.);
#1063 = DIRECTION('',(0.,0.,1.));
#1064 = ORIENTED_EDGE('',*,*,#1065,.T.);
#1065 = EDGE_CURVE('',#1058,#1032,#1066,.T.);
#1066 = LINE('',#1067,#1068);
#1067 = CARTESIAN_POINT('',(-35.55,-51.1,1.));
#1068 = VECTOR('',#1069,1.);
#1069 = DIRECTION('',(1.,0.,0.));
#1070 = ORIENTED_EDGE('',*,*,#1042,.F.);
#1071 = PLANE('',#1072);
#1072 = AXIS2_PLACEMENT_3D('',#1073,#1074,#1075);
#1073 = CARTESIAN_POINT('',(-35.55,-51.1,0.));
#1074 = DIRECTION('',(0.,1.,0.));
#1075 = DIRECTION('',(1.,0.,0.));
#1076 = ADVANCED_FACE('',(#1077),#1111,.T.);
#1077 = FACE_BOUND('',#1078,.T.);
#1078 = EDGE_LOOP('',(#1079,#1080,#1088,#1096,#1102,#1103,#1104,#1110));
#1079 = ORIENTED_EDGE('',*,*,#234,.T.);
#1080 = ORIENTED_EDGE('',*,*,#1081,.T.);
#1081 = EDGE_CURVE('',#235,#1082,#1084,.T.);
#1082 = VERTEX_POINT('',#1083);
#1083 = CARTESIAN_POINT('',(-35.55,-34.1,-0.8));
#1084 = LINE('',#1085,#1086);
#1085 = CARTESIAN_POINT('',(-35.55,-34.1,0.));
#1086 = VECTOR('',#1087,1.);
#1087 = DIRECTION('',(0.,0.,-1.));
#1088 = ORIENTED_EDGE('',*,*,#1089,.F.);
#1089 = EDGE_CURVE('',#1090,#1082,#1092,.T.);
#1090 = VERTEX_POINT('',#1091);
#1091 = CARTESIAN_POINT('',(-35.55,-45.1,-0.8));
#1092 = LINE('',#1093,#1094);
#1093 = CARTESIAN_POINT('',(-35.55,-45.1,-0.8));
#1094 = VECTOR('',#1095,1.);
#1095 = DIRECTION('',(0.,1.,0.));
#1096 = ORIENTED_EDGE('',*,*,#1097,.F.);
#1097 = EDGE_CURVE('',#259,#1090,#1098,.T.);
#1098 = LINE('',#1099,#1100);
#1099 = CARTESIAN_POINT('',(-35.55,-45.1,0.));
#1100 = VECTOR('',#1101,1.);
#1101 = DIRECTION('',(0.,0.,-1.));
#1102 = ORIENTED_EDGE('',*,*,#266,.T.);
#1103 = ORIENTED_EDGE('',*,*,#1057,.T.);
#1104 = ORIENTED_EDGE('',*,*,#1105,.F.);
#1105 = EDGE_CURVE('',#537,#1058,#1106,.T.);
#1106 = LINE('',#1107,#1108);
#1107 = CARTESIAN_POINT('',(-35.55,51.1,1.));
#1108 = VECTOR('',#1109,1.);
#1109 = DIRECTION('',(0.,-1.,0.));
#1110 = ORIENTED_EDGE('',*,*,#546,.T.);
#1111 = PLANE('',#1112);
#1112 = AXIS2_PLACEMENT_3D('',#1113,#1114,#1115);
#1113 = CARTESIAN_POINT('',(-35.55,-0.604061895551,0.450483558994));
#1114 = DIRECTION('',(-1.,-0.,-4.616450264751E-15));
#1115 = DIRECTION('',(4.616450264751E-15,0.,-1.));
#1116 = ADVANCED_FACE('',(#1117),#1143,.F.);
#1117 = FACE_BOUND('',#1118,.F.);
#1118 = EDGE_LOOP('',(#1119,#1127,#1135,#1141,#1142));
#1119 = ORIENTED_EDGE('',*,*,#1120,.T.);
#1120 = EDGE_CURVE('',#251,#1121,#1123,.T.);
#1121 = VERTEX_POINT('',#1122);
#1122 = CARTESIAN_POINT('',(-25.95,-45.1,-0.8));
#1123 = LINE('',#1124,#1125);
#1124 = CARTESIAN_POINT('',(-25.95,-45.1,0.));
#1125 = VECTOR('',#1126,1.);
#1126 = DIRECTION('',(0.,0.,-1.));
#1127 = ORIENTED_EDGE('',*,*,#1128,.T.);
#1128 = EDGE_CURVE('',#1121,#1129,#1131,.T.);
#1129 = VERTEX_POINT('',#1130);
#1130 = CARTESIAN_POINT('',(-28.96987298107,-45.1,-0.8));
#1131 = LINE('',#1132,#1133);
#1132 = CARTESIAN_POINT('',(-25.95,-45.1,-0.8));
#1133 = VECTOR('',#1134,1.);
#1134 = DIRECTION('',(-1.,0.,0.));
#1135 = ORIENTED_EDGE('',*,*,#1136,.T.);
#1136 = EDGE_CURVE('',#1129,#1090,#1137,.T.);
#1137 = LINE('',#1138,#1139);
#1138 = CARTESIAN_POINT('',(-25.95,-45.1,-0.8));
#1139 = VECTOR('',#1140,1.);
#1140 = DIRECTION('',(-1.,0.,0.));
#1141 = ORIENTED_EDGE('',*,*,#1097,.F.);
#1142 = ORIENTED_EDGE('',*,*,#258,.F.);
#1143 = PLANE('',#1144);
#1144 = AXIS2_PLACEMENT_3D('',#1145,#1146,#1147);
#1145 = CARTESIAN_POINT('',(-25.95,-45.1,0.));
#1146 = DIRECTION('',(0.,1.,0.));
#1147 = DIRECTION('',(-1.,0.,0.));
#1148 = ADVANCED_FACE('',(#1149),#1167,.F.);
#1149 = FACE_BOUND('',#1150,.F.);
#1150 = EDGE_LOOP('',(#1151,#1159,#1165,#1166));
#1151 = ORIENTED_EDGE('',*,*,#1152,.T.);
#1152 = EDGE_CURVE('',#243,#1153,#1155,.T.);
#1153 = VERTEX_POINT('',#1154);
#1154 = CARTESIAN_POINT('',(-25.95,-34.1,-0.8));
#1155 = LINE('',#1156,#1157);
#1156 = CARTESIAN_POINT('',(-25.95,-34.1,0.));
#1157 = VECTOR('',#1158,1.);
#1158 = DIRECTION('',(0.,0.,-1.));
#1159 = ORIENTED_EDGE('',*,*,#1160,.T.);
#1160 = EDGE_CURVE('',#1153,#1121,#1161,.T.);
#1161 = LINE('',#1162,#1163);
#1162 = CARTESIAN_POINT('',(-25.95,-34.1,-0.8));
#1163 = VECTOR('',#1164,1.);
#1164 = DIRECTION('',(0.,-1.,0.));
#1165 = ORIENTED_EDGE('',*,*,#1120,.F.);
#1166 = ORIENTED_EDGE('',*,*,#250,.F.);
#1167 = PLANE('',#1168);
#1168 = AXIS2_PLACEMENT_3D('',#1169,#1170,#1171);
#1169 = CARTESIAN_POINT('',(-25.95,-34.1,0.));
#1170 = DIRECTION('',(-1.,-0.,-0.));
#1171 = DIRECTION('',(0.,-1.,0.));
#1172 = ADVANCED_FACE('',(#1173),#1192,.F.);
#1173 = FACE_BOUND('',#1174,.F.);
#1174 = EDGE_LOOP('',(#1175,#1176,#1184,#1190,#1191));
#1175 = ORIENTED_EDGE('',*,*,#1081,.T.);
#1176 = ORIENTED_EDGE('',*,*,#1177,.T.);
#1177 = EDGE_CURVE('',#1082,#1178,#1180,.T.);
#1178 = VERTEX_POINT('',#1179);
#1179 = CARTESIAN_POINT('',(-28.96987298107,-34.1,-0.8));
#1180 = LINE('',#1181,#1182);
#1181 = CARTESIAN_POINT('',(-35.55,-34.1,-0.8));
#1182 = VECTOR('',#1183,1.);
#1183 = DIRECTION('',(1.,0.,0.));
#1184 = ORIENTED_EDGE('',*,*,#1185,.T.);
#1185 = EDGE_CURVE('',#1178,#1153,#1186,.T.);
#1186 = LINE('',#1187,#1188);
#1187 = CARTESIAN_POINT('',(-35.55,-34.1,-0.8));
#1188 = VECTOR('',#1189,1.);
#1189 = DIRECTION('',(1.,0.,0.));
#1190 = ORIENTED_EDGE('',*,*,#1152,.F.);
#1191 = ORIENTED_EDGE('',*,*,#242,.F.);
#1192 = PLANE('',#1193);
#1193 = AXIS2_PLACEMENT_3D('',#1194,#1195,#1196);
#1194 = CARTESIAN_POINT('',(-35.55,-34.1,0.));
#1195 = DIRECTION('',(0.,-1.,0.));
#1196 = DIRECTION('',(1.,0.,0.));
#1197 = ADVANCED_FACE('',(#1198),#1217,.F.);
#1198 = FACE_BOUND('',#1199,.F.);
#1199 = EDGE_LOOP('',(#1200,#1209,#1215,#1216));
#1200 = ORIENTED_EDGE('',*,*,#1201,.F.);
#1201 = EDGE_CURVE('',#1202,#1202,#1204,.T.);
#1202 = VERTEX_POINT('',#1203);
#1203 = CARTESIAN_POINT('',(-28.025,-8.8,1.));
#1204 = CIRCLE('',#1205,2.575);
#1205 = AXIS2_PLACEMENT_3D('',#1206,#1207,#1208);
#1206 = CARTESIAN_POINT('',(-30.6,-8.8,1.));
#1207 = DIRECTION('',(0.,0.,1.));
#1208 = DIRECTION('',(1.,0.,0.));
#1209 = ORIENTED_EDGE('',*,*,#1210,.T.);
#1210 = EDGE_CURVE('',#1202,#447,#1211,.T.);
#1211 = LINE('',#1212,#1213);
#1212 = CARTESIAN_POINT('',(-28.025,-8.8,1.));
#1213 = VECTOR('',#1214,1.);
#1214 = DIRECTION('',(-0.,-0.,-1.));
#1215 = ORIENTED_EDGE('',*,*,#446,.T.);
#1216 = ORIENTED_EDGE('',*,*,#1210,.F.);
#1217 = CYLINDRICAL_SURFACE('',#1218,2.575);
#1218 = AXIS2_PLACEMENT_3D('',#1219,#1220,#1221);
#1219 = CARTESIAN_POINT('',(-30.6,-8.8,1.));
#1220 = DIRECTION('',(0.,0.,1.));
#1221 = DIRECTION('',(1.,0.,0.));
#1222 = ADVANCED_FACE('',(#1223),#1242,.F.);
#1223 = FACE_BOUND('',#1224,.F.);
#1224 = EDGE_LOOP('',(#1225,#1234,#1240,#1241));
#1225 = ORIENTED_EDGE('',*,*,#1226,.F.);
#1226 = EDGE_CURVE('',#1227,#1227,#1229,.T.);
#1227 = VERTEX_POINT('',#1228);
#1228 = CARTESIAN_POINT('',(1.25,-26.1,1.));
#1229 = CIRCLE('',#1230,1.25);
#1230 = AXIS2_PLACEMENT_3D('',#1231,#1232,#1233);
#1231 = CARTESIAN_POINT('',(2.27E-15,-26.1,1.));
#1232 = DIRECTION('',(0.,0.,1.));
#1233 = DIRECTION('',(1.,0.,0.));
#1234 = ORIENTED_EDGE('',*,*,#1235,.T.);
#1235 = EDGE_CURVE('',#1227,#458,#1236,.T.);
#1236 = LINE('',#1237,#1238);
#1237 = CARTESIAN_POINT('',(1.25,-26.1,1.));
#1238 = VECTOR('',#1239,1.);
#1239 = DIRECTION('',(-0.,-0.,-1.));
#1240 = ORIENTED_EDGE('',*,*,#457,.T.);
#1241 = ORIENTED_EDGE('',*,*,#1235,.F.);
#1242 = CYLINDRICAL_SURFACE('',#1243,1.25);
#1243 = AXIS2_PLACEMENT_3D('',#1244,#1245,#1246);
#1244 = CARTESIAN_POINT('',(2.27E-15,-26.1,1.));
#1245 = DIRECTION('',(0.,0.,1.));
#1246 = DIRECTION('',(1.,0.,0.));
#1247 = ADVANCED_FACE('',(#1248),#1267,.F.);
#1248 = FACE_BOUND('',#1249,.F.);
#1249 = EDGE_LOOP('',(#1250,#1259,#1265,#1266));
#1250 = ORIENTED_EDGE('',*,*,#1251,.F.);
#1251 = EDGE_CURVE('',#1252,#1252,#1254,.T.);
#1252 = VERTEX_POINT('',#1253);
#1253 = CARTESIAN_POINT('',(33.175,-8.8,1.));
#1254 = CIRCLE('',#1255,2.575);
#1255 = AXIS2_PLACEMENT_3D('',#1256,#1257,#1258);
#1256 = CARTESIAN_POINT('',(30.6,-8.8,1.));
#1257 = DIRECTION('',(0.,0.,1.));
#1258 = DIRECTION('',(1.,0.,0.));
#1259 = ORIENTED_EDGE('',*,*,#1260,.T.);
#1260 = EDGE_CURVE('',#1252,#469,#1261,.T.);
#1261 = LINE('',#1262,#1263);
#1262 = CARTESIAN_POINT('',(33.175,-8.8,1.));
#1263 = VECTOR('',#1264,1.);
#1264 = DIRECTION('',(-0.,-0.,-1.));
#1265 = ORIENTED_EDGE('',*,*,#468,.T.);
#1266 = ORIENTED_EDGE('',*,*,#1260,.F.);
#1267 = CYLINDRICAL_SURFACE('',#1268,2.575);
#1268 = AXIS2_PLACEMENT_3D('',#1269,#1270,#1271);
#1269 = CARTESIAN_POINT('',(30.6,-8.8,1.));
#1270 = DIRECTION('',(0.,0.,1.));
#1271 = DIRECTION('',(1.,0.,0.));
#1272 = ADVANCED_FACE('',(#1273),#1292,.F.);
#1273 = FACE_BOUND('',#1274,.F.);
#1274 = EDGE_LOOP('',(#1275,#1284,#1290,#1291));
#1275 = ORIENTED_EDGE('',*,*,#1276,.F.);
#1276 = EDGE_CURVE('',#1277,#1277,#1279,.T.);
#1277 = VERTEX_POINT('',#1278);
#1278 = CARTESIAN_POINT('',(-28.025,46.4,1.));
#1279 = CIRCLE('',#1280,2.575);
#1280 = AXIS2_PLACEMENT_3D('',#1281,#1282,#1283);
#1281 = CARTESIAN_POINT('',(-30.6,46.4,1.));
#1282 = DIRECTION('',(0.,0.,1.));
#1283 = DIRECTION('',(1.,0.,0.));
#1284 = ORIENTED_EDGE('',*,*,#1285,.T.);
#1285 = EDGE_CURVE('',#1277,#480,#1286,.T.);
#1286 = LINE('',#1287,#1288);
#1287 = CARTESIAN_POINT('',(-28.025,46.4,1.));
#1288 = VECTOR('',#1289,1.);
#1289 = DIRECTION('',(-0.,-0.,-1.));
#1290 = ORIENTED_EDGE('',*,*,#479,.T.);
#1291 = ORIENTED_EDGE('',*,*,#1285,.F.);
#1292 = CYLINDRICAL_SURFACE('',#1293,2.575);
#1293 = AXIS2_PLACEMENT_3D('',#1294,#1295,#1296);
#1294 = CARTESIAN_POINT('',(-30.6,46.4,1.));
#1295 = DIRECTION('',(0.,0.,1.));
#1296 = DIRECTION('',(1.,0.,0.));
#1297 = ADVANCED_FACE('',(#1298),#1317,.F.);
#1298 = FACE_BOUND('',#1299,.F.);
#1299 = EDGE_LOOP('',(#1300,#1309,#1315,#1316));
#1300 = ORIENTED_EDGE('',*,*,#1301,.F.);
#1301 = EDGE_CURVE('',#1302,#1302,#1304,.T.);
#1302 = VERTEX_POINT('',#1303);
#1303 = CARTESIAN_POINT('',(33.175,46.4,1.));
#1304 = CIRCLE('',#1305,2.575);
#1305 = AXIS2_PLACEMENT_3D('',#1306,#1307,#1308);
#1306 = CARTESIAN_POINT('',(30.6,46.4,1.));
#1307 = DIRECTION('',(0.,0.,1.));
#1308 = DIRECTION('',(1.,0.,0.));
#1309 = ORIENTED_EDGE('',*,*,#1310,.T.);
#1310 = EDGE_CURVE('',#1302,#491,#1311,.T.);
#1311 = LINE('',#1312,#1313);
#1312 = CARTESIAN_POINT('',(33.175,46.4,1.));
#1313 = VECTOR('',#1314,1.);
#1314 = DIRECTION('',(-0.,-0.,-1.));
#1315 = ORIENTED_EDGE('',*,*,#490,.T.);
#1316 = ORIENTED_EDGE('',*,*,#1310,.F.);
#1317 = CYLINDRICAL_SURFACE('',#1318,2.575);
#1318 = AXIS2_PLACEMENT_3D('',#1319,#1320,#1321);
#1319 = CARTESIAN_POINT('',(30.6,46.4,1.));
#1320 = DIRECTION('',(0.,0.,1.));
#1321 = DIRECTION('',(1.,0.,0.));
#1322 = ADVANCED_FACE('',(#1323,#1425,#1428,#1431,#1434,#1437),#1440,.T.
  );
#1323 = FACE_BOUND('',#1324,.T.);
#1324 = EDGE_LOOP('',(#1325,#1326,#1327,#1328,#1329,#1330,#1331,#1332,
    #1333,#1334,#1335,#1336,#1337,#1338,#1346,#1354,#1362,#1370,#1378,
    #1386,#1392,#1393,#1394,#1395,#1396,#1397,#1398,#1399,#1407,#1415,
    #1421,#1422,#1423,#1424));
#1325 = ORIENTED_EDGE('',*,*,#536,.F.);
#1326 = ORIENTED_EDGE('',*,*,#1105,.T.);
#1327 = ORIENTED_EDGE('',*,*,#1065,.T.);
#1328 = ORIENTED_EDGE('',*,*,#1031,.F.);
#1329 = ORIENTED_EDGE('',*,*,#1007,.T.);
#1330 = ORIENTED_EDGE('',*,*,#992,.T.);
#1331 = ORIENTED_EDGE('',*,*,#959,.T.);
#1332 = ORIENTED_EDGE('',*,*,#935,.F.);
#1333 = ORIENTED_EDGE('',*,*,#911,.F.);
#1334 = ORIENTED_EDGE('',*,*,#887,.F.);
#1335 = ORIENTED_EDGE('',*,*,#863,.T.);
#1336 = ORIENTED_EDGE('',*,*,#839,.F.);
#1337 = ORIENTED_EDGE('',*,*,#817,.F.);
#1338 = ORIENTED_EDGE('',*,*,#1339,.F.);
#1339 = EDGE_CURVE('',#1340,#818,#1342,.T.);
#1340 = VERTEX_POINT('',#1341);
#1341 = CARTESIAN_POINT('',(20.15,49.300000000008,1.));
#1342 = LINE('',#1343,#1344);
#1343 = CARTESIAN_POINT('',(20.15,49.300000000008,1.));
#1344 = VECTOR('',#1345,1.);
#1345 = DIRECTION('',(0.,1.,-2.22044604925E-16));
#1346 = ORIENTED_EDGE('',*,*,#1347,.F.);
#1347 = EDGE_CURVE('',#1348,#1340,#1350,.T.);
#1348 = VERTEX_POINT('',#1349);
#1349 = CARTESIAN_POINT('',(23.95,49.300000000008,1.));
#1350 = LINE('',#1351,#1352);
#1351 = CARTESIAN_POINT('',(23.95,49.300000000008,1.));
#1352 = VECTOR('',#1353,1.);
#1353 = DIRECTION('',(-1.,0.,0.));
#1354 = ORIENTED_EDGE('',*,*,#1355,.F.);
#1355 = EDGE_CURVE('',#1356,#1348,#1358,.T.);
#1356 = VERTEX_POINT('',#1357);
#1357 = CARTESIAN_POINT('',(23.95,46.550000000008,1.));
#1358 = LINE('',#1359,#1360);
#1359 = CARTESIAN_POINT('',(23.95,46.550000000008,1.));
#1360 = VECTOR('',#1361,1.);
#1361 = DIRECTION('',(0.,1.,0.));
#1362 = ORIENTED_EDGE('',*,*,#1363,.F.);
#1363 = EDGE_CURVE('',#1364,#1356,#1366,.T.);
#1364 = VERTEX_POINT('',#1365);
#1365 = CARTESIAN_POINT('',(16.95,46.550000000008,1.));
#1366 = LINE('',#1367,#1368);
#1367 = CARTESIAN_POINT('',(16.95,46.550000000008,1.));
#1368 = VECTOR('',#1369,1.);
#1369 = DIRECTION('',(1.,0.,0.));
#1370 = ORIENTED_EDGE('',*,*,#1371,.F.);
#1371 = EDGE_CURVE('',#1372,#1364,#1374,.T.);
#1372 = VERTEX_POINT('',#1373);
#1373 = CARTESIAN_POINT('',(16.95,49.300000000008,1.));
#1374 = LINE('',#1375,#1376);
#1375 = CARTESIAN_POINT('',(16.95,49.300000000008,1.));
#1376 = VECTOR('',#1377,1.);
#1377 = DIRECTION('',(0.,-1.,0.));
#1378 = ORIENTED_EDGE('',*,*,#1379,.F.);
#1379 = EDGE_CURVE('',#1380,#1372,#1382,.T.);
#1380 = VERTEX_POINT('',#1381);
#1381 = CARTESIAN_POINT('',(18.85,49.300000000008,1.));
#1382 = LINE('',#1383,#1384);
#1383 = CARTESIAN_POINT('',(23.95,49.300000000008,1.));
#1384 = VECTOR('',#1385,1.);
#1385 = DIRECTION('',(-1.,0.,0.));
#1386 = ORIENTED_EDGE('',*,*,#1387,.T.);
#1387 = EDGE_CURVE('',#1380,#800,#1388,.T.);
#1388 = LINE('',#1389,#1390);
#1389 = CARTESIAN_POINT('',(18.85,49.300000000008,1.));
#1390 = VECTOR('',#1391,1.);
#1391 = DIRECTION('',(0.,1.,-2.22044604925E-16));
#1392 = ORIENTED_EDGE('',*,*,#799,.F.);
#1393 = ORIENTED_EDGE('',*,*,#775,.F.);
#1394 = ORIENTED_EDGE('',*,*,#751,.F.);
#1395 = ORIENTED_EDGE('',*,*,#727,.F.);
#1396 = ORIENTED_EDGE('',*,*,#703,.F.);
#1397 = ORIENTED_EDGE('',*,*,#679,.F.);
#1398 = ORIENTED_EDGE('',*,*,#657,.F.);
#1399 = ORIENTED_EDGE('',*,*,#1400,.F.);
#1400 = EDGE_CURVE('',#1401,#658,#1403,.T.);
#1401 = VERTEX_POINT('',#1402);
#1402 = CARTESIAN_POINT('',(-14.45,41.2,1.));
#1403 = LINE('',#1404,#1405);
#1404 = CARTESIAN_POINT('',(-14.45,41.2,1.));
#1405 = VECTOR('',#1406,1.);
#1406 = DIRECTION('',(0.,1.,0.));
#1407 = ORIENTED_EDGE('',*,*,#1408,.F.);
#1408 = EDGE_CURVE('',#1409,#1401,#1411,.T.);
#1409 = VERTEX_POINT('',#1410);
#1410 = CARTESIAN_POINT('',(-19.45,41.2,1.));
#1411 = LINE('',#1412,#1413);
#1412 = CARTESIAN_POINT('',(-19.45,41.2,1.));
#1413 = VECTOR('',#1414,1.);
#1414 = DIRECTION('',(1.,0.,0.));
#1415 = ORIENTED_EDGE('',*,*,#1416,.F.);
#1416 = EDGE_CURVE('',#640,#1409,#1417,.T.);
#1417 = LINE('',#1418,#1419);
#1418 = CARTESIAN_POINT('',(-19.45,51.5,1.));
#1419 = VECTOR('',#1420,1.);
#1420 = DIRECTION('',(0.,-1.,0.));
#1421 = ORIENTED_EDGE('',*,*,#639,.F.);
#1422 = ORIENTED_EDGE('',*,*,#615,.F.);
#1423 = ORIENTED_EDGE('',*,*,#591,.F.);
#1424 = ORIENTED_EDGE('',*,*,#567,.F.);
#1425 = FACE_BOUND('',#1426,.T.);
#1426 = EDGE_LOOP('',(#1427));
#1427 = ORIENTED_EDGE('',*,*,#1201,.F.);
#1428 = FACE_BOUND('',#1429,.T.);
#1429 = EDGE_LOOP('',(#1430));
#1430 = ORIENTED_EDGE('',*,*,#1226,.F.);
#1431 = FACE_BOUND('',#1432,.T.);
#1432 = EDGE_LOOP('',(#1433));
#1433 = ORIENTED_EDGE('',*,*,#1251,.F.);
#1434 = FACE_BOUND('',#1435,.T.);
#1435 = EDGE_LOOP('',(#1436));
#1436 = ORIENTED_EDGE('',*,*,#1276,.F.);
#1437 = FACE_BOUND('',#1438,.T.);
#1438 = EDGE_LOOP('',(#1439));
#1439 = ORIENTED_EDGE('',*,*,#1301,.F.);
#1440 = PLANE('',#1441);
#1441 = AXIS2_PLACEMENT_3D('',#1442,#1443,#1444);
#1442 = CARTESIAN_POINT('',(0.,0.,1.));
#1443 = DIRECTION('',(0.,0.,1.));
#1444 = DIRECTION('',(1.,0.,0.));
#1445 = ADVANCED_FACE('',(#1446),#1471,.F.);
#1446 = FACE_BOUND('',#1447,.F.);
#1447 = EDGE_LOOP('',(#1448,#1458,#1464,#1465));
#1448 = ORIENTED_EDGE('',*,*,#1449,.T.);
#1449 = EDGE_CURVE('',#1450,#1452,#1454,.T.);
#1450 = VERTEX_POINT('',#1451);
#1451 = CARTESIAN_POINT('',(-14.45,51.5,1.));
#1452 = VERTEX_POINT('',#1453);
#1453 = CARTESIAN_POINT('',(-19.45,51.5,1.));
#1454 = LINE('',#1455,#1456);
#1455 = CARTESIAN_POINT('',(-14.45,51.5,1.));
#1456 = VECTOR('',#1457,1.);
#1457 = DIRECTION('',(-1.,0.,0.));
#1458 = ORIENTED_EDGE('',*,*,#1459,.T.);
#1459 = EDGE_CURVE('',#1452,#640,#1460,.T.);
#1460 = LINE('',#1461,#1462);
#1461 = CARTESIAN_POINT('',(-19.45,51.5,1.));
#1462 = VECTOR('',#1463,1.);
#1463 = DIRECTION('',(0.,-1.,0.));
#1464 = ORIENTED_EDGE('',*,*,#665,.T.);
#1465 = ORIENTED_EDGE('',*,*,#1466,.T.);
#1466 = EDGE_CURVE('',#658,#1450,#1467,.T.);
#1467 = LINE('',#1468,#1469);
#1468 = CARTESIAN_POINT('',(-14.45,41.2,1.));
#1469 = VECTOR('',#1470,1.);
#1470 = DIRECTION('',(0.,1.,0.));
#1471 = PLANE('',#1472);
#1472 = AXIS2_PLACEMENT_3D('',#1473,#1474,#1475);
#1473 = CARTESIAN_POINT('',(-16.95,46.35,1.));
#1474 = DIRECTION('',(0.,0.,1.));
#1475 = DIRECTION('',(1.,0.,0.));
#1476 = ADVANCED_FACE('',(#1477),#1502,.F.);
#1477 = FACE_BOUND('',#1478,.F.);
#1478 = EDGE_LOOP('',(#1479,#1480,#1488,#1496));
#1479 = ORIENTED_EDGE('',*,*,#825,.T.);
#1480 = ORIENTED_EDGE('',*,*,#1481,.T.);
#1481 = EDGE_CURVE('',#818,#1482,#1484,.T.);
#1482 = VERTEX_POINT('',#1483);
#1483 = CARTESIAN_POINT('',(20.15,50.800000000008,1.));
#1484 = LINE('',#1485,#1486);
#1485 = CARTESIAN_POINT('',(20.15,49.300000000008,1.));
#1486 = VECTOR('',#1487,1.);
#1487 = DIRECTION('',(0.,1.,-2.22044604925E-16));
#1488 = ORIENTED_EDGE('',*,*,#1489,.T.);
#1489 = EDGE_CURVE('',#1482,#1490,#1492,.T.);
#1490 = VERTEX_POINT('',#1491);
#1491 = CARTESIAN_POINT('',(18.85,50.800000000008,1.));
#1492 = LINE('',#1493,#1494);
#1493 = CARTESIAN_POINT('',(20.15,50.800000000008,1.));
#1494 = VECTOR('',#1495,1.);
#1495 = DIRECTION('',(-1.,0.,0.));
#1496 = ORIENTED_EDGE('',*,*,#1497,.F.);
#1497 = EDGE_CURVE('',#800,#1490,#1498,.T.);
#1498 = LINE('',#1499,#1500);
#1499 = CARTESIAN_POINT('',(18.85,49.300000000008,1.));
#1500 = VECTOR('',#1501,1.);
#1501 = DIRECTION('',(0.,1.,-2.22044604925E-16));
#1502 = PLANE('',#1503);
#1503 = AXIS2_PLACEMENT_3D('',#1504,#1505,#1506);
#1504 = CARTESIAN_POINT('',(20.15,49.300000000008,1.));
#1505 = DIRECTION('',(0.,2.22044604925E-16,1.));
#1506 = DIRECTION('',(-1.,0.,0.));
#1507 = ADVANCED_FACE('',(#1508),#1520,.T.);
#1508 = FACE_BOUND('',#1509,.T.);
#1509 = EDGE_LOOP('',(#1510,#1517,#1518,#1519));
#1510 = ORIENTED_EDGE('',*,*,#1511,.F.);
#1511 = EDGE_CURVE('',#1129,#1178,#1512,.T.);
#1512 = CIRCLE('',#1513,7.);
#1513 = AXIS2_PLACEMENT_3D('',#1514,#1515,#1516);
#1514 = CARTESIAN_POINT('',(-33.3,-39.6,-0.8));
#1515 = DIRECTION('',(0.,0.,-1.));
#1516 = DIRECTION('',(1.,0.,0.));
#1517 = ORIENTED_EDGE('',*,*,#1136,.T.);
#1518 = ORIENTED_EDGE('',*,*,#1089,.T.);
#1519 = ORIENTED_EDGE('',*,*,#1177,.T.);
#1520 = PLANE('',#1521);
#1521 = AXIS2_PLACEMENT_3D('',#1522,#1523,#1524);
#1522 = CARTESIAN_POINT('',(-33.3,-39.6,-0.8));
#1523 = DIRECTION('',(0.,0.,1.));
#1524 = DIRECTION('',(1.,0.,0.));
#1525 = ADVANCED_FACE('',(#1526),#1547,.F.);
#1526 = FACE_BOUND('',#1527,.F.);
#1527 = EDGE_LOOP('',(#1528,#1537,#1538,#1539,#1540));
#1528 = ORIENTED_EDGE('',*,*,#1529,.T.);
#1529 = EDGE_CURVE('',#1530,#1129,#1532,.T.);
#1530 = VERTEX_POINT('',#1531);
#1531 = CARTESIAN_POINT('',(-26.3,-39.6,-0.8));
#1532 = CIRCLE('',#1533,7.);
#1533 = AXIS2_PLACEMENT_3D('',#1534,#1535,#1536);
#1534 = CARTESIAN_POINT('',(-33.3,-39.6,-0.8));
#1535 = DIRECTION('',(0.,0.,-1.));
#1536 = DIRECTION('',(1.,0.,0.));
#1537 = ORIENTED_EDGE('',*,*,#1128,.F.);
#1538 = ORIENTED_EDGE('',*,*,#1160,.F.);
#1539 = ORIENTED_EDGE('',*,*,#1185,.F.);
#1540 = ORIENTED_EDGE('',*,*,#1541,.T.);
#1541 = EDGE_CURVE('',#1178,#1530,#1542,.T.);
#1542 = CIRCLE('',#1543,7.);
#1543 = AXIS2_PLACEMENT_3D('',#1544,#1545,#1546);
#1544 = CARTESIAN_POINT('',(-33.3,-39.6,-0.8));
#1545 = DIRECTION('',(0.,0.,-1.));
#1546 = DIRECTION('',(1.,0.,0.));
#1547 = PLANE('',#1548);
#1548 = AXIS2_PLACEMENT_3D('',#1549,#1550,#1551);
#1549 = CARTESIAN_POINT('',(-30.75,-39.6,-0.8));
#1550 = DIRECTION('',(0.,0.,1.));
#1551 = DIRECTION('',(1.,0.,0.));
#1552 = ADVANCED_FACE('',(#1553),#1579,.F.);
#1553 = FACE_BOUND('',#1554,.F.);
#1554 = EDGE_LOOP('',(#1555,#1563,#1571,#1577,#1578));
#1555 = ORIENTED_EDGE('',*,*,#1556,.T.);
#1556 = EDGE_CURVE('',#1452,#1557,#1559,.T.);
#1557 = VERTEX_POINT('',#1558);
#1558 = CARTESIAN_POINT('',(-19.45,51.5,5.25));
#1559 = LINE('',#1560,#1561);
#1560 = CARTESIAN_POINT('',(-19.45,51.5,1.));
#1561 = VECTOR('',#1562,1.);
#1562 = DIRECTION('',(0.,0.,1.));
#1563 = ORIENTED_EDGE('',*,*,#1564,.T.);
#1564 = EDGE_CURVE('',#1557,#1565,#1567,.T.);
#1565 = VERTEX_POINT('',#1566);
#1566 = CARTESIAN_POINT('',(-19.45,41.2,5.25));
#1567 = LINE('',#1568,#1569);
#1568 = CARTESIAN_POINT('',(-19.45,51.5,5.25));
#1569 = VECTOR('',#1570,1.);
#1570 = DIRECTION('',(0.,-1.,0.));
#1571 = ORIENTED_EDGE('',*,*,#1572,.F.);
#1572 = EDGE_CURVE('',#1409,#1565,#1573,.T.);
#1573 = LINE('',#1574,#1575);
#1574 = CARTESIAN_POINT('',(-19.45,41.2,1.));
#1575 = VECTOR('',#1576,1.);
#1576 = DIRECTION('',(0.,0.,1.));
#1577 = ORIENTED_EDGE('',*,*,#1416,.F.);
#1578 = ORIENTED_EDGE('',*,*,#1459,.F.);
#1579 = PLANE('',#1580);
#1580 = AXIS2_PLACEMENT_3D('',#1581,#1582,#1583);
#1581 = CARTESIAN_POINT('',(-19.45,51.5,1.));
#1582 = DIRECTION('',(1.,0.,0.));
#1583 = DIRECTION('',(0.,-1.,0.));
#1584 = ADVANCED_FACE('',(#1585),#1603,.F.);
#1585 = FACE_BOUND('',#1586,.F.);
#1586 = EDGE_LOOP('',(#1587,#1588,#1596,#1602));
#1587 = ORIENTED_EDGE('',*,*,#1572,.T.);
#1588 = ORIENTED_EDGE('',*,*,#1589,.T.);
#1589 = EDGE_CURVE('',#1565,#1590,#1592,.T.);
#1590 = VERTEX_POINT('',#1591);
#1591 = CARTESIAN_POINT('',(-14.45,41.2,5.25));
#1592 = LINE('',#1593,#1594);
#1593 = CARTESIAN_POINT('',(-19.45,41.2,5.25));
#1594 = VECTOR('',#1595,1.);
#1595 = DIRECTION('',(1.,0.,0.));
#1596 = ORIENTED_EDGE('',*,*,#1597,.F.);
#1597 = EDGE_CURVE('',#1401,#1590,#1598,.T.);
#1598 = LINE('',#1599,#1600);
#1599 = CARTESIAN_POINT('',(-14.45,41.2,1.));
#1600 = VECTOR('',#1601,1.);
#1601 = DIRECTION('',(0.,0.,1.));
#1602 = ORIENTED_EDGE('',*,*,#1408,.F.);
#1603 = PLANE('',#1604);
#1604 = AXIS2_PLACEMENT_3D('',#1605,#1606,#1607);
#1605 = CARTESIAN_POINT('',(-19.45,41.2,1.));
#1606 = DIRECTION('',(0.,1.,0.));
#1607 = DIRECTION('',(1.,0.,0.));
#1608 = ADVANCED_FACE('',(#1609),#1628,.F.);
#1609 = FACE_BOUND('',#1610,.F.);
#1610 = EDGE_LOOP('',(#1611,#1612,#1620,#1626,#1627));
#1611 = ORIENTED_EDGE('',*,*,#1597,.T.);
#1612 = ORIENTED_EDGE('',*,*,#1613,.T.);
#1613 = EDGE_CURVE('',#1590,#1614,#1616,.T.);
#1614 = VERTEX_POINT('',#1615);
#1615 = CARTESIAN_POINT('',(-14.45,51.5,5.25));
#1616 = LINE('',#1617,#1618);
#1617 = CARTESIAN_POINT('',(-14.45,41.2,5.25));
#1618 = VECTOR('',#1619,1.);
#1619 = DIRECTION('',(0.,1.,0.));
#1620 = ORIENTED_EDGE('',*,*,#1621,.F.);
#1621 = EDGE_CURVE('',#1450,#1614,#1622,.T.);
#1622 = LINE('',#1623,#1624);
#1623 = CARTESIAN_POINT('',(-14.45,51.5,1.));
#1624 = VECTOR('',#1625,1.);
#1625 = DIRECTION('',(0.,0.,1.));
#1626 = ORIENTED_EDGE('',*,*,#1466,.F.);
#1627 = ORIENTED_EDGE('',*,*,#1400,.F.);
#1628 = PLANE('',#1629);
#1629 = AXIS2_PLACEMENT_3D('',#1630,#1631,#1632);
#1630 = CARTESIAN_POINT('',(-14.45,41.2,1.));
#1631 = DIRECTION('',(-1.,0.,0.));
#1632 = DIRECTION('',(0.,1.,0.));
#1633 = ADVANCED_FACE('',(#1634),#1660,.F.);
#1634 = FACE_BOUND('',#1635,.F.);
#1635 = EDGE_LOOP('',(#1636,#1637,#1638,#1646,#1654));
#1636 = ORIENTED_EDGE('',*,*,#1387,.T.);
#1637 = ORIENTED_EDGE('',*,*,#1497,.T.);
#1638 = ORIENTED_EDGE('',*,*,#1639,.T.);
#1639 = EDGE_CURVE('',#1490,#1640,#1642,.T.);
#1640 = VERTEX_POINT('',#1641);
#1641 = CARTESIAN_POINT('',(18.85,50.800000000008,2.5));
#1642 = LINE('',#1643,#1644);
#1643 = CARTESIAN_POINT('',(18.85,50.800000000008,1.));
#1644 = VECTOR('',#1645,1.);
#1645 = DIRECTION('',(0.,2.22044604925E-16,1.));
#1646 = ORIENTED_EDGE('',*,*,#1647,.F.);
#1647 = EDGE_CURVE('',#1648,#1640,#1650,.T.);
#1648 = VERTEX_POINT('',#1649);
#1649 = CARTESIAN_POINT('',(18.85,49.300000000008,2.5));
#1650 = LINE('',#1651,#1652);
#1651 = CARTESIAN_POINT('',(18.85,49.300000000008,2.5));
#1652 = VECTOR('',#1653,1.);
#1653 = DIRECTION('',(0.,1.,-2.22044604925E-16));
#1654 = ORIENTED_EDGE('',*,*,#1655,.F.);
#1655 = EDGE_CURVE('',#1380,#1648,#1656,.T.);
#1656 = LINE('',#1657,#1658);
#1657 = CARTESIAN_POINT('',(18.85,49.300000000008,1.));
#1658 = VECTOR('',#1659,1.);
#1659 = DIRECTION('',(0.,2.22044604925E-16,1.));
#1660 = PLANE('',#1661);
#1661 = AXIS2_PLACEMENT_3D('',#1662,#1663,#1664);
#1662 = CARTESIAN_POINT('',(18.85,49.300000000008,1.));
#1663 = DIRECTION('',(1.,0.,0.));
#1664 = DIRECTION('',(0.,2.22044604925E-16,1.));
#1665 = ADVANCED_FACE('',(#1666),#1684,.F.);
#1666 = FACE_BOUND('',#1667,.F.);
#1667 = EDGE_LOOP('',(#1668,#1669,#1670,#1678));
#1668 = ORIENTED_EDGE('',*,*,#1379,.F.);
#1669 = ORIENTED_EDGE('',*,*,#1655,.T.);
#1670 = ORIENTED_EDGE('',*,*,#1671,.T.);
#1671 = EDGE_CURVE('',#1648,#1672,#1674,.T.);
#1672 = VERTEX_POINT('',#1673);
#1673 = CARTESIAN_POINT('',(16.95,49.300000000008,2.5));
#1674 = LINE('',#1675,#1676);
#1675 = CARTESIAN_POINT('',(23.95,49.300000000008,2.5));
#1676 = VECTOR('',#1677,1.);
#1677 = DIRECTION('',(-1.,0.,0.));
#1678 = ORIENTED_EDGE('',*,*,#1679,.F.);
#1679 = EDGE_CURVE('',#1372,#1672,#1680,.T.);
#1680 = LINE('',#1681,#1682);
#1681 = CARTESIAN_POINT('',(16.95,49.300000000008,1.));
#1682 = VECTOR('',#1683,1.);
#1683 = DIRECTION('',(0.,0.,1.));
#1684 = PLANE('',#1685);
#1685 = AXIS2_PLACEMENT_3D('',#1686,#1687,#1688);
#1686 = CARTESIAN_POINT('',(23.95,49.300000000008,1.));
#1687 = DIRECTION('',(0.,-1.,0.));
#1688 = DIRECTION('',(-1.,0.,0.));
#1689 = ADVANCED_FACE('',(#1690),#1708,.F.);
#1690 = FACE_BOUND('',#1691,.F.);
#1691 = EDGE_LOOP('',(#1692,#1693,#1701,#1707));
#1692 = ORIENTED_EDGE('',*,*,#1679,.T.);
#1693 = ORIENTED_EDGE('',*,*,#1694,.T.);
#1694 = EDGE_CURVE('',#1672,#1695,#1697,.T.);
#1695 = VERTEX_POINT('',#1696);
#1696 = CARTESIAN_POINT('',(16.95,46.550000000008,2.5));
#1697 = LINE('',#1698,#1699);
#1698 = CARTESIAN_POINT('',(16.95,49.300000000008,2.5));
#1699 = VECTOR('',#1700,1.);
#1700 = DIRECTION('',(0.,-1.,0.));
#1701 = ORIENTED_EDGE('',*,*,#1702,.F.);
#1702 = EDGE_CURVE('',#1364,#1695,#1703,.T.);
#1703 = LINE('',#1704,#1705);
#1704 = CARTESIAN_POINT('',(16.95,46.550000000008,1.));
#1705 = VECTOR('',#1706,1.);
#1706 = DIRECTION('',(0.,0.,1.));
#1707 = ORIENTED_EDGE('',*,*,#1371,.F.);
#1708 = PLANE('',#1709);
#1709 = AXIS2_PLACEMENT_3D('',#1710,#1711,#1712);
#1710 = CARTESIAN_POINT('',(16.95,49.300000000008,1.));
#1711 = DIRECTION('',(1.,0.,0.));
#1712 = DIRECTION('',(0.,-1.,0.));
#1713 = ADVANCED_FACE('',(#1714),#1732,.F.);
#1714 = FACE_BOUND('',#1715,.F.);
#1715 = EDGE_LOOP('',(#1716,#1717,#1725,#1731));
#1716 = ORIENTED_EDGE('',*,*,#1702,.T.);
#1717 = ORIENTED_EDGE('',*,*,#1718,.T.);
#1718 = EDGE_CURVE('',#1695,#1719,#1721,.T.);
#1719 = VERTEX_POINT('',#1720);
#1720 = CARTESIAN_POINT('',(23.95,46.550000000008,2.5));
#1721 = LINE('',#1722,#1723);
#1722 = CARTESIAN_POINT('',(16.95,46.550000000008,2.5));
#1723 = VECTOR('',#1724,1.);
#1724 = DIRECTION('',(1.,0.,0.));
#1725 = ORIENTED_EDGE('',*,*,#1726,.F.);
#1726 = EDGE_CURVE('',#1356,#1719,#1727,.T.);
#1727 = LINE('',#1728,#1729);
#1728 = CARTESIAN_POINT('',(23.95,46.550000000008,1.));
#1729 = VECTOR('',#1730,1.);
#1730 = DIRECTION('',(0.,0.,1.));
#1731 = ORIENTED_EDGE('',*,*,#1363,.F.);
#1732 = PLANE('',#1733);
#1733 = AXIS2_PLACEMENT_3D('',#1734,#1735,#1736);
#1734 = CARTESIAN_POINT('',(16.95,46.550000000008,1.));
#1735 = DIRECTION('',(0.,1.,0.));
#1736 = DIRECTION('',(1.,0.,0.));
#1737 = ADVANCED_FACE('',(#1738),#1756,.F.);
#1738 = FACE_BOUND('',#1739,.F.);
#1739 = EDGE_LOOP('',(#1740,#1741,#1749,#1755));
#1740 = ORIENTED_EDGE('',*,*,#1726,.T.);
#1741 = ORIENTED_EDGE('',*,*,#1742,.T.);
#1742 = EDGE_CURVE('',#1719,#1743,#1745,.T.);
#1743 = VERTEX_POINT('',#1744);
#1744 = CARTESIAN_POINT('',(23.95,49.300000000008,2.5));
#1745 = LINE('',#1746,#1747);
#1746 = CARTESIAN_POINT('',(23.95,46.550000000008,2.5));
#1747 = VECTOR('',#1748,1.);
#1748 = DIRECTION('',(0.,1.,0.));
#1749 = ORIENTED_EDGE('',*,*,#1750,.F.);
#1750 = EDGE_CURVE('',#1348,#1743,#1751,.T.);
#1751 = LINE('',#1752,#1753);
#1752 = CARTESIAN_POINT('',(23.95,49.300000000008,1.));
#1753 = VECTOR('',#1754,1.);
#1754 = DIRECTION('',(0.,0.,1.));
#1755 = ORIENTED_EDGE('',*,*,#1355,.F.);
#1756 = PLANE('',#1757);
#1757 = AXIS2_PLACEMENT_3D('',#1758,#1759,#1760);
#1758 = CARTESIAN_POINT('',(23.95,46.550000000008,1.));
#1759 = DIRECTION('',(-1.,0.,0.));
#1760 = DIRECTION('',(0.,1.,0.));
#1761 = ADVANCED_FACE('',(#1762),#1780,.F.);
#1762 = FACE_BOUND('',#1763,.F.);
#1763 = EDGE_LOOP('',(#1764,#1765,#1766,#1774));
#1764 = ORIENTED_EDGE('',*,*,#1347,.F.);
#1765 = ORIENTED_EDGE('',*,*,#1750,.T.);
#1766 = ORIENTED_EDGE('',*,*,#1767,.T.);
#1767 = EDGE_CURVE('',#1743,#1768,#1770,.T.);
#1768 = VERTEX_POINT('',#1769);
#1769 = CARTESIAN_POINT('',(20.15,49.300000000008,2.5));
#1770 = LINE('',#1771,#1772);
#1771 = CARTESIAN_POINT('',(23.95,49.300000000008,2.5));
#1772 = VECTOR('',#1773,1.);
#1773 = DIRECTION('',(-1.,0.,0.));
#1774 = ORIENTED_EDGE('',*,*,#1775,.T.);
#1775 = EDGE_CURVE('',#1768,#1340,#1776,.T.);
#1776 = LINE('',#1777,#1778);
#1777 = CARTESIAN_POINT('',(20.15,49.300000000008,2.5));
#1778 = VECTOR('',#1779,1.);
#1779 = DIRECTION('',(0.,-2.22044604925E-16,-1.));
#1780 = PLANE('',#1781);
#1781 = AXIS2_PLACEMENT_3D('',#1782,#1783,#1784);
#1782 = CARTESIAN_POINT('',(23.95,49.300000000008,1.));
#1783 = DIRECTION('',(0.,-1.,0.));
#1784 = DIRECTION('',(-1.,0.,0.));
#1785 = ADVANCED_FACE('',(#1786),#1805,.F.);
#1786 = FACE_BOUND('',#1787,.F.);
#1787 = EDGE_LOOP('',(#1788,#1796,#1802,#1803,#1804));
#1788 = ORIENTED_EDGE('',*,*,#1789,.T.);
#1789 = EDGE_CURVE('',#1768,#1790,#1792,.T.);
#1790 = VERTEX_POINT('',#1791);
#1791 = CARTESIAN_POINT('',(20.15,50.800000000008,2.5));
#1792 = LINE('',#1793,#1794);
#1793 = CARTESIAN_POINT('',(20.15,49.300000000008,2.5));
#1794 = VECTOR('',#1795,1.);
#1795 = DIRECTION('',(0.,1.,-2.22044604925E-16));
#1796 = ORIENTED_EDGE('',*,*,#1797,.T.);
#1797 = EDGE_CURVE('',#1790,#1482,#1798,.T.);
#1798 = LINE('',#1799,#1800);
#1799 = CARTESIAN_POINT('',(20.15,50.800000000008,2.5));
#1800 = VECTOR('',#1801,1.);
#1801 = DIRECTION('',(0.,-2.22044604925E-16,-1.));
#1802 = ORIENTED_EDGE('',*,*,#1481,.F.);
#1803 = ORIENTED_EDGE('',*,*,#1339,.F.);
#1804 = ORIENTED_EDGE('',*,*,#1775,.F.);
#1805 = PLANE('',#1806);
#1806 = AXIS2_PLACEMENT_3D('',#1807,#1808,#1809);
#1807 = CARTESIAN_POINT('',(20.15,49.300000000008,2.5));
#1808 = DIRECTION('',(-1.,0.,0.));
#1809 = DIRECTION('',(0.,-2.22044604925E-16,-1.));
#1810 = ADVANCED_FACE('',(#1811,#1822),#1833,.F.);
#1811 = FACE_BOUND('',#1812,.F.);
#1812 = EDGE_LOOP('',(#1813,#1814,#1820,#1821));
#1813 = ORIENTED_EDGE('',*,*,#1621,.T.);
#1814 = ORIENTED_EDGE('',*,*,#1815,.T.);
#1815 = EDGE_CURVE('',#1614,#1557,#1816,.T.);
#1816 = LINE('',#1817,#1818);
#1817 = CARTESIAN_POINT('',(-14.45,51.5,5.25));
#1818 = VECTOR('',#1819,1.);
#1819 = DIRECTION('',(-1.,0.,0.));
#1820 = ORIENTED_EDGE('',*,*,#1556,.F.);
#1821 = ORIENTED_EDGE('',*,*,#1449,.F.);
#1822 = FACE_BOUND('',#1823,.F.);
#1823 = EDGE_LOOP('',(#1824));
#1824 = ORIENTED_EDGE('',*,*,#1825,.T.);
#1825 = EDGE_CURVE('',#1826,#1826,#1828,.T.);
#1826 = VERTEX_POINT('',#1827);
#1827 = CARTESIAN_POINT('',(-18.95,51.5,3.125));
#1828 = CIRCLE('',#1829,2.);
#1829 = AXIS2_PLACEMENT_3D('',#1830,#1831,#1832);
#1830 = CARTESIAN_POINT('',(-16.95,51.5,3.125));
#1831 = DIRECTION('',(0.,1.,-2.22044604925E-16));
#1832 = DIRECTION('',(-1.,0.,0.));
#1833 = PLANE('',#1834);
#1834 = AXIS2_PLACEMENT_3D('',#1835,#1836,#1837);
#1835 = CARTESIAN_POINT('',(-14.45,51.5,1.));
#1836 = DIRECTION('',(0.,-1.,0.));
#1837 = DIRECTION('',(-1.,0.,0.));
#1838 = ADVANCED_FACE('',(#1839),#1850,.T.);
#1839 = FACE_BOUND('',#1840,.T.);
#1840 = EDGE_LOOP('',(#1841,#1842,#1843,#1844));
#1841 = ORIENTED_EDGE('',*,*,#1797,.T.);
#1842 = ORIENTED_EDGE('',*,*,#1489,.T.);
#1843 = ORIENTED_EDGE('',*,*,#1639,.T.);
#1844 = ORIENTED_EDGE('',*,*,#1845,.T.);
#1845 = EDGE_CURVE('',#1640,#1790,#1846,.T.);
#1846 = LINE('',#1847,#1848);
#1847 = CARTESIAN_POINT('',(18.85,50.800000000008,2.5));
#1848 = VECTOR('',#1849,1.);
#1849 = DIRECTION('',(1.,0.,0.));
#1850 = PLANE('',#1851);
#1851 = AXIS2_PLACEMENT_3D('',#1852,#1853,#1854);
#1852 = CARTESIAN_POINT('',(19.5,50.800000000008,1.75));
#1853 = DIRECTION('',(0.,1.,0.));
#1854 = DIRECTION('',(0.,0.,1.));
#1855 = ADVANCED_FACE('',(#1856),#1877,.T.);
#1856 = FACE_BOUND('',#1857,.F.);
#1857 = EDGE_LOOP('',(#1858,#1859,#1867,#1874,#1875,#1876));
#1858 = ORIENTED_EDGE('',*,*,#1529,.F.);
#1859 = ORIENTED_EDGE('',*,*,#1860,.T.);
#1860 = EDGE_CURVE('',#1530,#1861,#1863,.T.);
#1861 = VERTEX_POINT('',#1862);
#1862 = CARTESIAN_POINT('',(-26.3,-39.6,-1.78));
#1863 = LINE('',#1864,#1865);
#1864 = CARTESIAN_POINT('',(-26.3,-39.6,-0.8));
#1865 = VECTOR('',#1866,1.);
#1866 = DIRECTION('',(0.,0.,-1.));
#1867 = ORIENTED_EDGE('',*,*,#1868,.T.);
#1868 = EDGE_CURVE('',#1861,#1861,#1869,.T.);
#1869 = CIRCLE('',#1870,7.);
#1870 = AXIS2_PLACEMENT_3D('',#1871,#1872,#1873);
#1871 = CARTESIAN_POINT('',(-33.3,-39.6,-1.78));
#1872 = DIRECTION('',(0.,0.,-1.));
#1873 = DIRECTION('',(1.,0.,0.));
#1874 = ORIENTED_EDGE('',*,*,#1860,.F.);
#1875 = ORIENTED_EDGE('',*,*,#1541,.F.);
#1876 = ORIENTED_EDGE('',*,*,#1511,.F.);
#1877 = CYLINDRICAL_SURFACE('',#1878,7.);
#1878 = AXIS2_PLACEMENT_3D('',#1879,#1880,#1881);
#1879 = CARTESIAN_POINT('',(-33.3,-39.6,-0.8));
#1880 = DIRECTION('',(0.,0.,1.));
#1881 = DIRECTION('',(1.,0.,0.));
#1882 = ADVANCED_FACE('',(#1883),#1889,.T.);
#1883 = FACE_BOUND('',#1884,.T.);
#1884 = EDGE_LOOP('',(#1885,#1886,#1887,#1888));
#1885 = ORIENTED_EDGE('',*,*,#1564,.T.);
#1886 = ORIENTED_EDGE('',*,*,#1589,.T.);
#1887 = ORIENTED_EDGE('',*,*,#1613,.T.);
#1888 = ORIENTED_EDGE('',*,*,#1815,.T.);
#1889 = PLANE('',#1890);
#1890 = AXIS2_PLACEMENT_3D('',#1891,#1892,#1893);
#1891 = CARTESIAN_POINT('',(-16.95,46.35,5.25));
#1892 = DIRECTION('',(0.,0.,1.));
#1893 = DIRECTION('',(1.,0.,0.));
#1894 = ADVANCED_FACE('',(#1895),#1905,.T.);
#1895 = FACE_BOUND('',#1896,.T.);
#1896 = EDGE_LOOP('',(#1897,#1898,#1899,#1900,#1901,#1902,#1903,#1904));
#1897 = ORIENTED_EDGE('',*,*,#1647,.F.);
#1898 = ORIENTED_EDGE('',*,*,#1671,.T.);
#1899 = ORIENTED_EDGE('',*,*,#1694,.T.);
#1900 = ORIENTED_EDGE('',*,*,#1718,.T.);
#1901 = ORIENTED_EDGE('',*,*,#1742,.T.);
#1902 = ORIENTED_EDGE('',*,*,#1767,.T.);
#1903 = ORIENTED_EDGE('',*,*,#1789,.T.);
#1904 = ORIENTED_EDGE('',*,*,#1845,.F.);
#1905 = PLANE('',#1906);
#1906 = AXIS2_PLACEMENT_3D('',#1907,#1908,#1909);
#1907 = CARTESIAN_POINT('',(20.323333333333,48.295000000008,2.5));
#1908 = DIRECTION('',(0.,0.,1.));
#1909 = DIRECTION('',(1.,0.,0.));
#1910 = ADVANCED_FACE('',(#1911),#1930,.T.);
#1911 = FACE_BOUND('',#1912,.F.);
#1912 = EDGE_LOOP('',(#1913,#1921,#1928,#1929));
#1913 = ORIENTED_EDGE('',*,*,#1914,.T.);
#1914 = EDGE_CURVE('',#1826,#1915,#1917,.T.);
#1915 = VERTEX_POINT('',#1916);
#1916 = CARTESIAN_POINT('',(-18.95,53.3,3.125));
#1917 = LINE('',#1918,#1919);
#1918 = CARTESIAN_POINT('',(-18.95,51.5,3.125));
#1919 = VECTOR('',#1920,1.);
#1920 = DIRECTION('',(0.,1.,-2.22044604925E-16));
#1921 = ORIENTED_EDGE('',*,*,#1922,.T.);
#1922 = EDGE_CURVE('',#1915,#1915,#1923,.T.);
#1923 = CIRCLE('',#1924,2.);
#1924 = AXIS2_PLACEMENT_3D('',#1925,#1926,#1927);
#1925 = CARTESIAN_POINT('',(-16.95,53.3,3.125));
#1926 = DIRECTION('',(0.,1.,-2.22044604925E-16));
#1927 = DIRECTION('',(-1.,0.,0.));
#1928 = ORIENTED_EDGE('',*,*,#1914,.F.);
#1929 = ORIENTED_EDGE('',*,*,#1825,.F.);
#1930 = CYLINDRICAL_SURFACE('',#1931,2.);
#1931 = AXIS2_PLACEMENT_3D('',#1932,#1933,#1934);
#1932 = CARTESIAN_POINT('',(-16.95,51.5,3.125));
#1933 = DIRECTION('',(0.,-1.,2.22044604925E-16));
#1934 = DIRECTION('',(-1.,0.,0.));
#1935 = ADVANCED_FACE('',(#1936),#1939,.F.);
#1936 = FACE_BOUND('',#1937,.T.);
#1937 = EDGE_LOOP('',(#1938));
#1938 = ORIENTED_EDGE('',*,*,#1868,.T.);
#1939 = PLANE('',#1940);
#1940 = AXIS2_PLACEMENT_3D('',#1941,#1942,#1943);
#1941 = CARTESIAN_POINT('',(-33.3,-39.6,-1.78));
#1942 = DIRECTION('',(0.,0.,1.));
#1943 = DIRECTION('',(1.,0.,0.));
#1944 = ADVANCED_FACE('',(#1945),#1948,.T.);
#1945 = FACE_BOUND('',#1946,.T.);
#1946 = EDGE_LOOP('',(#1947));
#1947 = ORIENTED_EDGE('',*,*,#1922,.T.);
#1948 = PLANE('',#1949);
#1949 = AXIS2_PLACEMENT_3D('',#1950,#1951,#1952);
#1950 = CARTESIAN_POINT('',(-16.95,53.3,3.125));
#1951 = DIRECTION('',(0.,1.,0.));
#1952 = DIRECTION('',(0.,0.,1.));
#1953 = ( GEOMETRIC_REPRESENTATION_CONTEXT(3) 
GLOBAL_UNCERTAINTY_ASSIGNED_CONTEXT((#1957)) 
GLOBAL_UNIT_ASSIGNED_CONTEXT((#1954,#1955,#1956)) REPRESENTATION_CONTEXT
('Context #1','3D Context with UNIT and UNCERTAINTY') );
#1954 = ( LENGTH_UNIT() NAMED_UNIT(*) SI_UNIT(.MILLI.,.METRE.) );
#1955 = ( NAMED_UNIT(*) PLANE_ANGLE_UNIT() SI_UNIT($,.RADIAN.) );
#1956 = ( NAMED_UNIT(*) SI_UNIT($,.STERADIAN.) SOLID_ANGLE_UNIT() );
#1957 = UNCERTAINTY_MEASURE_WITH_UNIT(LENGTH_MEASURE(1.E-05),#1954,
  'distance_accuracy_value','confusion accuracy');
#1958 = PRODUCT_RELATED_PRODUCT_CATEGORY('part',$,(#7));
#1959 = MECHANICAL_DESIGN_GEOMETRIC_PRESENTATION_REPRESENTATION('',(
    #1960),#1953);
#1960 = STYLED_ITEM('color',(#1961),#15);
#1961 = PRESENTATION_STYLE_ASSIGNMENT((#1962,#1968));
#1962 = SURFACE_STYLE_USAGE(.BOTH.,#1963);
#1963 = SURFACE_SIDE_STYLE('',(#1964));
#1964 = SURFACE_STYLE_FILL_AREA(#1965);
#1965 = FILL_AREA_STYLE('',(#1966));
#1966 = FILL_AREA_STYLE_COLOUR('',#1967);
#1967 = COLOUR_RGB('',0.447058818107,0.474509808674,0.501960817233);
#1968 = CURVE_STYLE('',#1969,POSITIVE_LENGTH_MEASURE(0.1),#1970);
#1969 = DRAUGHTING_PRE_DEFINED_CURVE_FONT('continuous');
#1970 = COLOUR_RGB('',9.803921802644E-02,9.803921802644E-02,
  9.803921802644E-02);
ENDSEC;
END-ISO-10303-21;
